<svg width="187" height="182" viewBox="0 0 187 182" fill="none" xmlns="http://www.w3.org/2000/svg">
<g clip-path="url(#clip0_36_30407)">
<path d="M184.578 31.2165C181.865 12.8142 167.913 0 150.666 0H35.5595C17.3439 0 3.77918 12.6215 1.64757 31.3129C-2.80942 70.9116 2.61648 128.72 6.39524 150.88C9.78643 170.631 21.5103 181.904 38.3693 181.904H147.856C164.134 181.904 176.73 169.668 179.83 150.783C181.09 143.461 191.554 77.8486 184.578 31.0238V31.2165Z" fill="#6F4B28"/>
<path d="M175.179 150.109C172.66 165.043 162.971 177.279 147.856 177.279H38.4659C23.3508 177.279 14.0493 166.97 11.1426 150.109C6.87934 126.022 2.22856 69.37 6.39489 31.8909C8.33271 14.6447 20.541 4.72095 35.5591 4.72095H150.666C165.781 4.72095 177.505 16.1863 179.83 31.8909C185.837 71.875 178.861 127.564 175.082 150.205L175.179 150.109Z" fill="#F2C26D"/>
<path d="M11.0458 80.3536C17.1499 79.6791 23.351 79.1974 29.4551 78.812C40.9852 78.1376 52.5152 77.5595 64.1421 77.3668C86.8147 76.8851 109.584 76.8851 132.063 79.7755C148.728 81.8951 165.2 84.8819 181.768 87.3869C182.64 68.5028 182.446 48.848 179.927 31.8909C177.602 16.1863 165.781 4.72095 150.763 4.72095H35.5592C20.5411 4.72095 8.33282 14.6447 6.39499 31.8909C4.74784 46.4393 4.45717 63.9745 5.03851 81.2207C7.17012 80.8353 9.30173 80.5463 11.1427 80.3536H11.0458Z" fill="#F2C26D"/>
<path style="mix-blend-mode:multiply" d="M127.897 82.0878C103.771 79.39 79.3544 79.5827 55.2285 80.4499C43.6984 80.8353 32.0715 81.2206 20.6383 82.2805C15.5031 82.7622 10.271 83.3403 5.13574 83.822C6.00776 110.221 8.72072 135.85 11.2399 150.205C14.1466 166.97 23.4482 177.375 38.5632 177.375H148.05C163.165 177.375 172.854 165.139 175.374 150.205C177.505 137.68 180.509 114.846 181.865 90.2773C163.94 87.4832 146.112 84.2074 128.091 82.1841L127.897 82.0878Z" fill="url(#paint0_linear_36_30407)"/>
<g style="mix-blend-mode:screen" opacity="0.7">
<g opacity="0.5">
<path d="M156.868 24.1831C161.421 20.5219 165.297 15.8973 170.045 12.4288C169.463 11.947 168.882 11.3689 168.301 10.8872C164.134 16.09 159.484 20.9073 154.93 25.821C155.608 25.243 156.189 24.7612 156.868 24.1831Z" fill="#F2C26D"/>
</g>
<g opacity="0.5">
<path d="M72.5714 24.8578C73.5403 24.8578 74.5093 24.7614 75.3813 24.6651C75.3813 21.6783 75.5751 18.5952 75.8657 15.6084C76.1564 12.718 76.3502 9.73125 76.8346 6.84083C76.8346 6.35909 77.1253 5.49197 77.3191 4.72119H71.6025C71.4087 8.38239 72.1839 12.1399 72.087 15.8011C72.087 18.5952 71.6994 22.0637 72.5714 24.9541V24.8578Z" fill="#F2C26D"/>
</g>
<g opacity="0.5">
<path d="M86.1362 24.087C88.946 23.9906 91.659 23.9906 94.4688 24.087C97.3756 24.2797 100.282 24.4724 103.286 24.7614C103.77 18.0171 104.739 11.2728 105.999 4.72119H84.5859C84.6828 11.1765 86.0393 17.5354 86.1362 24.087Z" fill="#F2C26D"/>
</g>
<g opacity="0.5">
<path d="M52.4182 24.4724C52.4182 24.4724 53.0964 24.2797 53.484 24.2797C57.1658 23.798 60.8477 24.2797 64.6265 24.5687C64.6265 19.655 63.7544 14.5486 63.8513 9.6349C63.8513 7.997 63.8513 6.3591 64.0451 4.72119H46.5078C46.9923 6.3591 47.3798 7.90065 47.8643 9.53856C49.2208 14.5486 50.6741 19.5587 52.4182 24.4724Z" fill="#F2C26D"/>
</g>
<g opacity="0.5">
<path d="M44.8606 27.6518C43.7948 25.7248 42.4384 23.8942 41.3726 21.9673C39.9192 19.2696 38.5627 16.5718 37.1094 13.8741C35.4622 10.8874 33.9119 7.70789 31.8772 4.91382C30.9083 5.01017 30.0363 5.20286 29.0674 5.39555C32.943 13.6814 39.5316 20.3294 43.4073 28.5189C43.8917 28.2299 44.3762 27.9408 44.8606 27.6518Z" fill="#F2C26D"/>
</g>
<g opacity="0.5">
<path d="M67.3393 24.7613C68.1145 24.7613 68.8896 24.7613 69.6647 24.8577C68.9865 21.9673 69.2772 18.7878 69.2772 15.8974C69.2772 12.1398 68.5989 8.3823 68.7927 4.62476H66.8549C66.6611 7.90056 66.6611 11.08 66.758 14.2595C66.758 17.728 67.4362 21.1965 67.4362 24.665L67.3393 24.7613Z" fill="#F2C26D"/>
</g>
<g opacity="0.5">
<path d="M115.592 25.2432C116.658 25.2432 117.917 25.2432 119.08 25.2432C121.115 18.6915 121.018 10.6947 124.409 4.72119H117.917C116.754 8.28604 116.561 12.5253 115.979 16.1865C115.495 19.1733 115.107 22.2564 114.72 25.2432H115.592Z" fill="#F2C26D"/>
</g>
<g opacity="0.5">
<path d="M165.006 37.9609C161.228 39.9842 157.449 41.9111 153.573 43.7417C153.864 44.5125 154.155 45.2833 154.348 46.1504C157.546 45.2833 160.743 44.5125 163.844 43.4527C167.526 42.2002 171.304 40.755 175.18 39.7915C177.021 39.3098 178.959 39.0207 180.8 38.4426C180.509 36.2267 180.218 34.0107 179.928 31.891C179.928 31.5056 179.831 31.1203 179.734 30.7349C178.087 31.4093 176.536 32.2764 174.889 33.1435C171.595 34.6851 168.301 36.323 165.006 38.0573V37.9609Z" fill="#F2C26D"/>
</g>
<g opacity="0.5">
<path d="M39.6285 30.9277C39.6285 30.9277 40.4036 30.4459 40.7912 30.1569C40.7912 30.1569 40.8881 30.1569 40.985 30.0605C37.2062 21.4856 30.2301 14.645 26.3544 6.07007C24.4166 6.64815 22.6725 7.41893 21.0254 8.3824C25.4824 13.9705 29.9394 19.7514 34.7839 25.1468C36.528 26.9774 38.1751 28.9044 39.6285 30.9277Z" fill="#F2C26D"/>
</g>
<g opacity="0.5">
<path d="M157.643 60.4099C157.643 60.4099 157.643 60.8916 157.739 61.1807C157.739 61.3734 157.739 61.4697 157.739 61.6624C157.739 61.6624 157.836 61.6624 157.933 61.6624C164.813 62.0478 171.789 62.3368 178.765 62.4332C179.928 62.4332 181.09 62.4332 182.156 62.4332C182.156 60.988 182.156 59.4464 182.156 58.0012C177.408 58.1939 172.661 58.0012 167.913 58.6757C164.522 59.1574 161.034 59.6391 157.643 60.3136V60.4099Z" fill="#F2C26D"/>
</g>
<g opacity="0.5">
<path d="M145.628 31.0238C145.628 31.0238 145.919 31.3129 146.112 31.4092C152.604 23.8941 159.774 16.9571 165.975 9.24933C164.328 8.18951 162.584 7.32238 160.743 6.64795C157.061 11.5617 153.573 16.6681 150.666 22.1599C149.019 25.1466 147.469 28.2297 145.628 31.0238Z" fill="#F2C26D"/>
</g>
<g opacity="0.5">
<path d="M122.083 25.1468H124.021C125.571 18.3062 126.928 10.6947 130.222 4.72119H127.8C125.571 7.61161 124.699 12.5253 124.021 16.0902C123.439 19.1733 122.955 22.16 122.083 25.1468Z" fill="#F2C26D"/>
</g>
<g opacity="0.5">
<path d="M136.907 26.592C137.683 26.7847 138.555 27.0738 139.233 27.3628C141.268 23.5089 142.915 19.4623 145.046 15.6084C147.081 11.7545 149.891 8.38239 152.216 4.72119C151.732 4.72119 151.247 4.72119 150.666 4.72119H145.821C144.271 7.997 143.012 11.5618 141.558 14.8377C139.911 18.6915 138.361 22.6418 136.811 26.592H136.907Z" fill="#F2C26D"/>
</g>
<g opacity="0.5">
<path d="M159.774 126.504C159.774 126.504 159.774 126.697 159.774 126.793C162.294 127.275 165.007 129.009 166.847 129.78C170.336 131.321 173.921 132.767 177.506 134.212C177.699 132.574 177.893 130.936 178.184 129.202C172.176 127.275 166.169 125.444 159.968 123.999C159.968 124.866 159.871 125.637 159.774 126.504Z" fill="#F2C26D"/>
</g>
<g opacity="0.5">
<path d="M159.483 129.587C159.483 130.358 159.289 131.129 159.192 131.899C162.39 131.899 164.812 134.115 167.428 135.946C170.141 137.969 173.435 139.415 176.633 140.474C176.827 139.415 176.923 138.258 177.117 137.006C173.629 135.657 170.238 134.212 166.75 132.863C165.103 132.189 161.905 130.069 159.386 129.587H159.483Z" fill="#F2C26D"/>
</g>
<g opacity="0.5">
<path d="M34.1062 137.873C34.1062 137.873 34.3 137.777 34.3969 137.68C34.3 137.102 34.2031 136.428 34.1062 135.85C32.9435 136.332 31.7808 137.295 30.8119 137.873C28.3896 139.318 25.9674 140.667 23.5451 141.92C19.3788 144.136 15.1155 146.255 10.9492 148.568C10.9492 149.049 11.143 149.628 11.2399 150.109C11.3368 150.88 11.5306 151.554 11.6275 152.325C14.4373 150.109 17.1503 147.701 20.2508 145.774C24.8047 142.98 29.6492 140.667 34.3 137.873H34.1062Z" fill="#F2C26D"/>
</g>
<g opacity="0.5">
<path d="M161.033 104.73C164.522 104.344 168.203 106.271 171.401 107.138C174.308 107.909 177.214 108.68 180.218 109.547C180.315 108.487 180.412 107.331 180.509 106.175C174.017 104.73 167.622 103.573 160.937 103.477C160.937 103.862 160.937 104.248 160.937 104.633L161.033 104.73Z" fill="#F2C26D"/>
</g>
<g opacity="0.5">
<path d="M160.549 88.1579C160.549 88.1579 160.549 88.736 160.549 89.025C164.715 89.025 169.075 89.0251 173.242 89.5068C176.052 89.7958 178.861 90.1812 181.574 90.5666C181.574 89.5068 181.671 88.447 181.768 87.4835C174.695 87.1945 167.622 87.7725 160.452 88.2543L160.549 88.1579Z" fill="#F2C26D"/>
</g>
<g opacity="0.5">
<path d="M27.1297 62.3368C27.1297 61.6623 27.1297 61.0842 27.1297 60.4098C22.8665 59.9281 18.6033 59.35 14.2432 59.061C11.1427 58.8683 7.94524 58.4829 4.84473 58.6756C4.84473 59.9281 4.84473 61.2769 4.84473 62.6258C12.3053 62.0477 19.766 62.9148 27.2266 62.4331L27.1297 62.3368Z" fill="#F2C26D"/>
</g>
<g opacity="0.5">
<path d="M18.9911 67.7321C21.8009 67.6358 24.6107 67.3467 27.3237 66.9613C27.3237 66.5759 27.3237 66.1906 27.3237 65.9015C27.3237 65.6125 27.3237 65.4198 27.3237 65.1307C19.8631 65.6125 12.2087 64.649 4.74805 65.3234C4.74805 66.4796 4.74805 67.6358 4.74805 68.7919C9.39882 69.1773 14.3403 67.9248 18.8942 67.7321H18.9911Z" fill="#F2C26D"/>
</g>
<g opacity="0.5">
<path d="M26.9365 51.546C26.9365 51.546 26.9365 51.0642 26.9365 50.7752C27.0334 48.5592 27.2271 45.8615 27.9054 43.3565C24.3204 41.9113 20.8323 40.6587 17.1505 39.4062C13.4686 38.1537 9.59295 37.0939 5.91108 35.6487C5.52352 39.9843 5.23284 44.5126 5.03906 49.2336C11.5308 49.9081 18.0225 50.3898 24.5142 51.2569C24.9986 51.2569 25.8707 51.3533 26.8396 51.4496L26.9365 51.546Z" fill="#F2C26D"/>
</g>
<g opacity="0.5">
<path d="M27.8083 100.683C27.7114 99.9122 27.6145 99.1414 27.5177 98.3706C20.3477 99.8158 13.0809 101.261 6.00781 103.188C6.00781 104.248 6.1047 105.308 6.20159 106.367C9.68968 105.115 13.4684 104.344 16.7627 103.573C20.4446 102.61 24.0296 101.646 27.8083 100.779V100.683Z" fill="#F2C26D"/>
</g>
<g opacity="0.5">
<path d="M30.4242 118.122C30.4242 118.122 30.3273 117.544 30.3273 117.255C22.8667 121.012 15.6967 125.348 8.33301 129.202C8.52679 131.225 8.81746 133.248 9.01125 135.175C16.0843 130.069 23.448 125.348 30.9087 120.723C30.7149 119.856 30.618 118.989 30.4242 118.122Z" fill="#F2C26D"/>
</g>
</g>
<g style="mix-blend-mode:multiply" opacity="0.7">
<path d="M32.2654 157.817C35.269 153.867 37.9819 149.82 40.6949 145.677C34.3001 150.88 27.7115 155.793 21.2198 160.996C19.5726 162.345 17.9255 163.598 16.2783 164.946C18.0224 167.837 20.154 170.342 22.6731 172.269C23.4483 170.631 24.2234 169.089 25.1923 167.548C27.4208 164.176 29.8431 160.996 32.3623 157.817H32.2654Z" fill="#6B6D72"/>
</g>
<g style="mix-blend-mode:multiply" opacity="0.7">
<path d="M160.937 169.668C158.418 167.837 155.705 166.392 153.38 164.465C152.023 163.309 150.763 161.96 149.504 160.707C150.86 162.827 152.314 164.85 153.67 166.97C155.317 169.379 156.965 171.691 158.515 174.1C158.709 174.389 158.805 174.581 158.999 174.87C160.84 174.003 162.487 172.847 163.941 171.595C162.875 171.016 161.809 170.438 160.937 169.764V169.668Z" fill="#6B6D72"/>
</g>
<g style="mix-blend-mode:screen" opacity="0.4">
<path d="M21.8974 29.675C24.2228 33.3362 24.3197 37.2864 24.029 41.5257C23.3508 53.0874 24.2228 64.7454 24.5134 76.3071C24.5134 78.8121 24.7072 81.3171 24.8041 83.7258H154.057C154.832 75.3436 155.801 66.8651 157.061 58.5792C157.836 52.8947 157.642 47.0175 159.677 41.5257C160.355 39.6951 161.324 38.0572 161.614 36.1303C162.002 33.5289 161.614 30.9275 163.262 28.6152C165.103 26.1102 168.203 23.1234 171.497 23.2197C175.857 23.4124 178.764 27.9408 180.218 32.9508C180.218 32.5654 180.121 32.18 180.024 31.7947C178.28 19.7512 170.916 10.2129 160.742 6.45532C164.909 7.99688 167.816 13.3923 166.943 17.5353C165.878 22.738 160.936 23.7015 156.285 23.7015C146.693 23.7015 137.295 26.6882 127.799 27.459C117.723 28.3262 107.549 27.9408 97.4725 27.17C87.5896 26.4956 77.7067 25.3394 67.8238 24.3759C58.1347 23.5088 48.3487 24.0869 38.6596 23.8942C32.3616 23.7015 27.3233 21.4855 23.9321 15.9937C22.7694 14.0668 21.4129 10.2129 22.9632 8.09323C23.2539 7.70784 23.5445 7.4188 23.8352 7.03341C15.5026 10.5019 9.30153 17.9206 7.16992 28.3262C7.94505 26.8809 8.91396 25.5321 10.1735 24.3759C14.7274 20.0403 19.6689 25.9175 22.0912 29.675H21.8974Z" fill="#E9E9EC"/>
</g>
<path d="M35.8498 33.9142C32.7493 28.6151 28.1954 24.2795 23.9322 19.8475C21.7037 17.5352 19.2814 15.2229 17.4405 12.7178C17.1498 12.3325 16.8591 11.9471 16.5685 11.4653C15.1151 12.7178 13.7586 14.1631 12.499 15.7046C15.212 17.4389 17.9249 19.3658 20.4441 21.1964C25.87 25.0503 31.4897 28.8078 35.7529 33.9142H35.8498Z" fill="#E9E9EC"/>
<path d="M152.41 31.6019C155.898 29.964 159.58 27.8444 162.681 25.5321C165.781 23.3161 168.397 20.4257 171.595 18.306C172.37 17.8243 173.145 17.3425 174.017 16.7645C173.339 15.8973 172.66 14.9339 171.982 14.1631C169.366 16.7645 166.556 19.2695 163.843 21.8709C160.452 25.243 155.898 27.9407 152.507 31.4092L152.41 31.6019Z" fill="#E9E9EC"/>
<g style="mix-blend-mode:multiply" opacity="0.4">
<path d="M171.595 155.89C167.816 158.202 163.069 155.697 161.131 152.325C159.484 149.724 160.453 146.255 160.356 143.365C160.356 140.667 160.356 137.777 160.162 134.886C159.387 138.451 158.902 142.016 158.127 145.581C157.837 146.93 155.802 147.219 155.414 145.773C152.895 137.391 152.701 128.72 152.508 120.049C152.314 111.377 152.604 102.706 153.186 94.1313C153.283 91.6263 153.476 89.1212 153.767 86.6162H24.9018C25.3863 96.3473 26.0645 105.982 27.0334 115.713C27.8085 122.939 27.7117 130.165 27.8085 137.391C27.9054 144.039 28.293 153.289 21.0262 156.661C17.0536 158.491 14.05 156.564 11.7246 153.096C15.2127 168.126 24.2236 177.279 38.4666 177.279H147.954C161.906 177.279 171.208 166.873 174.599 153.481C173.727 154.445 172.855 155.215 171.789 155.89H171.595Z" fill="#515358"/>
</g>
<path opacity="0.5" d="M29.165 166.777C31.1998 162.538 32.5562 158.395 33.8158 154.059C32.5562 155.601 31.1998 157.046 29.7464 158.491C26.2583 162.056 23.1578 165.91 19.7666 169.571C21.7044 171.595 23.836 173.232 26.2583 174.485C27.1303 171.787 28.0024 169.186 29.165 166.681V166.777Z" fill="#E9E9EC"/>
<path opacity="0.5" d="M155.995 159.551C153.767 157.817 151.538 156.468 149.019 155.312C148.535 155.119 147.953 154.83 147.372 154.445C147.857 155.119 148.438 155.697 148.922 156.372C150.666 158.491 152.507 160.225 154.348 162.249C157.061 165.428 158.805 169.089 161.324 172.365C161.518 172.558 161.615 172.751 161.809 173.04C163.844 171.594 165.685 169.956 167.332 168.03C163.553 165.235 159.677 162.441 155.995 159.551Z" fill="#E9E9EC"/>
<path d="M160.452 139.511C158.417 151.747 150.375 161.767 138.07 161.767H48.3491C35.947 161.767 28.3895 153.289 25.9672 139.511C22.576 119.663 18.6035 73.3203 22.0916 42.5856C23.6418 28.5189 33.7185 20.3293 46.0237 20.3293H140.396C152.798 20.3293 162.39 29.7714 164.328 42.5856C169.269 75.3436 163.553 121.012 160.452 139.511Z" fill="#F2C26D"/>
<g style="mix-blend-mode:multiply" opacity="0.15">
<path d="M164.328 42.4891C162.487 29.8676 153.088 20.522 141.074 20.2329C143.593 22.2562 154.348 28.2297 155.607 31.3128C159.677 41.4293 156.964 73.513 150.569 81.6061C137.973 97.4071 109.487 92.3007 89.8183 91.6263C71.409 91.0482 30.1333 100.008 33.2339 63.0111C33.6214 57.5193 29.7458 43.1636 28.1955 37.8645C26.9359 33.6252 32.3618 28.1334 34.5903 23.9905C34.881 23.4124 35.2686 22.8343 35.6561 22.3526C28.4862 25.7247 23.2541 32.5654 22.1883 42.3928C18.7971 73.1276 22.6727 119.567 26.0639 139.318C28.4862 153.096 36.1406 161.574 48.4458 161.574H138.167C150.569 161.574 158.514 151.554 160.549 139.318C163.649 120.819 169.366 75.1509 164.425 42.3928L164.328 42.4891Z" fill="#6B6D72"/>
</g>
<g style="mix-blend-mode:multiply" opacity="0.15">
<path d="M164.328 42.4891C163.359 35.8412 160.259 30.0603 155.802 26.1101C157.739 29.5786 159.387 33.1435 160.259 36.9973C162.293 45.8613 161.324 54.6289 158.999 63.3002C152.992 85.9418 170.238 106.753 148.825 118.411C131.385 127.853 57.7477 130.454 40.4042 118.411C20.7353 104.729 31.2965 85.0746 26.5488 62.2403C24.9016 54.3399 23.2545 46.343 23.0607 38.2499C23.0607 37.9608 23.0607 37.5754 23.0607 37.19C22.5762 38.8279 22.1887 40.5622 21.9949 42.4891C18.6037 73.2239 22.4794 119.663 25.8705 139.415C28.2928 153.192 35.9472 161.671 48.2524 161.671H137.974C150.376 161.671 158.321 151.651 160.356 139.415C163.456 120.916 169.173 75.2472 164.231 42.4891H164.328Z" fill="#6B6D72"/>
</g>
<path d="M22.0918 42.4891C22.5763 36.2265 24.4172 30.3493 28.9711 25.7247C34.3001 20.2329 41.1794 18.7877 48.5431 18.4986C65.4991 18.1132 82.455 17.8242 99.411 17.9205C113.266 17.9205 127.316 17.8242 141.171 18.595C154.348 19.5584 162.972 29.8676 164.522 42.4891C161.518 31.1201 153.089 21.8708 140.59 21.8708C127.509 21.8708 113.751 22.4489 100.477 22.5452C84.1991 22.6415 67.8244 22.5452 51.5467 22.0635C44.0861 21.8708 36.9162 21.9671 30.9089 26.9772C26.0643 30.9274 23.6421 36.5156 22.2856 42.5854L22.0918 42.4891Z" fill="#E9E9EC"/>
<path opacity="0.5" d="M164.328 42.4891C169.076 72.0677 167.332 102.417 163.456 131.996C161.809 144.328 158.805 158.009 145.434 162.73C139.718 164.754 133.226 163.983 127.219 163.983C118.595 163.983 109.972 163.983 101.446 163.983C84.7803 163.983 68.0181 163.983 51.3528 163.983C46.3145 163.983 41.373 163.598 36.8191 161.093C30.1336 157.335 26.258 150.109 24.6108 142.787C22.8668 135.079 22.1886 126.986 21.6072 119.085C20.929 110.896 20.3476 102.706 20.1538 94.5166C19.6694 79.4864 19.6694 64.3599 21.3165 49.3297C21.6072 47.0174 21.801 44.7051 22.0917 42.3927C20.7352 72.164 21.9948 102.417 26.7424 131.803C27.9051 139.222 28.8741 146.93 33.8155 152.903C37.4974 157.335 42.9233 159.358 48.6399 159.358C63.4642 159.262 78.2886 159.358 93.2098 159.262C101.833 159.262 110.456 159.262 119.08 159.262C126.443 159.262 134.292 160.129 141.559 159.069C153.379 157.335 157.546 145.195 159.29 135.175C164.328 104.922 167.428 73.5129 164.522 42.8745C164.522 42.6818 164.522 42.4891 164.522 42.2964L164.328 42.4891Z" fill="#E9E9EC"/>
<path d="M58.8135 33.0472C54.6472 19.3659 35.6565 33.9143 33.1374 41.3331C32.2654 43.8381 30.7151 48.9445 32.4591 51.3532C36.3348 56.7486 47.3804 48.9445 50.6747 46.5358C54.6472 43.7418 60.5576 38.6354 58.8135 33.0472Z" fill="#E9E9EC"/>
<path d="M73.1528 29.3859C70.2461 28.6151 64.7233 31.2165 64.9171 35.8412C65.2078 43.3563 72.1839 37.9608 74.0248 34.396C75.672 31.4092 74.8 29.7713 73.1528 29.3859Z" fill="#E9E9EC"/>
<mask id="path-43-outside-1_36_30407" maskUnits="userSpaceOnUse" x="63.313" y="63.2009" width="60.2761" height="47.6379" fill="black">
<rect fill="white" x="63.313" y="63.2009" width="60.2761" height="47.6379"/>
<path d="M74.0986 107.571L73.3641 81.5815L67.352 82.4173L67.1515 75.3201C68.3904 75.1075 69.4288 74.8782 70.2666 74.6324C71.1044 74.3866 71.9832 74.0173 72.903 73.5246C73.8228 73.0319 74.6043 72.3653 75.2475 71.5247C75.8907 70.6841 76.4063 69.6581 76.7945 68.4467L84.1582 68.2399L85.2608 107.258L74.0986 107.571ZM120.489 106.268L92.0665 107.067L91.8553 106.672C91.7354 106.364 91.6375 104.867 91.5615 102.179C91.4718 99.0023 93.545 95.665 97.7812 92.1669C101.296 89.1115 103.793 86.5849 105.27 84.587C106.748 82.5892 107.46 80.6463 107.406 78.7581C107.376 77.6697 107.102 76.6436 106.586 75.6799C105.67 73.9494 104.357 73.1082 102.646 73.1562C101.202 73.1967 99.9849 73.3866 98.9941 73.7256L97.5887 80.6345L91.5235 80.7714L90.8024 72.9553C93.1201 69.2221 97.6998 67.2594 104.542 67.0673C106.097 67.0236 107.544 67.0941 108.883 67.2788C110.222 67.4635 111.51 67.8164 112.747 68.3374C114.007 68.8578 115.082 69.5279 115.972 70.3477C116.862 71.1675 117.582 72.2366 118.13 73.555C118.678 74.8513 118.976 76.3546 119.025 78.065C119.06 79.309 118.894 80.503 118.526 81.6471C118.179 82.7684 117.685 83.7715 117.043 84.6566C116.423 85.5188 115.669 86.3847 114.783 87.2544C113.896 88.1241 112.962 88.9062 111.981 89.6006C111.022 90.2945 109.987 91.0349 108.876 91.822C107.787 92.6085 106.741 93.3603 105.738 94.0776C104.758 94.7721 103.769 95.5669 102.771 96.4619C101.796 97.3563 100.965 98.2466 100.279 99.1329L120.229 97.0721L120.489 106.268Z"/>
</mask>
<path d="M74.0986 107.571L73.3641 81.5815L67.352 82.4173L67.1515 75.3201C68.3904 75.1075 69.4288 74.8782 70.2666 74.6324C71.1044 74.3866 71.9832 74.0173 72.903 73.5246C73.8228 73.0319 74.6043 72.3653 75.2475 71.5247C75.8907 70.6841 76.4063 69.6581 76.7945 68.4467L84.1582 68.2399L85.2608 107.258L74.0986 107.571ZM120.489 106.268L92.0665 107.067L91.8553 106.672C91.7354 106.364 91.6375 104.867 91.5615 102.179C91.4718 99.0023 93.545 95.665 97.7812 92.1669C101.296 89.1115 103.793 86.5849 105.27 84.587C106.748 82.5892 107.46 80.6463 107.406 78.7581C107.376 77.6697 107.102 76.6436 106.586 75.6799C105.67 73.9494 104.357 73.1082 102.646 73.1562C101.202 73.1967 99.9849 73.3866 98.9941 73.7256L97.5887 80.6345L91.5235 80.7714L90.8024 72.9553C93.1201 69.2221 97.6998 67.2594 104.542 67.0673C106.097 67.0236 107.544 67.0941 108.883 67.2788C110.222 67.4635 111.51 67.8164 112.747 68.3374C114.007 68.8578 115.082 69.5279 115.972 70.3477C116.862 71.1675 117.582 72.2366 118.13 73.555C118.678 74.8513 118.976 76.3546 119.025 78.065C119.06 79.309 118.894 80.503 118.526 81.6471C118.179 82.7684 117.685 83.7715 117.043 84.6566C116.423 85.5188 115.669 86.3847 114.783 87.2544C113.896 88.1241 112.962 88.9062 111.981 89.6006C111.022 90.2945 109.987 91.0349 108.876 91.822C107.787 92.6085 106.741 93.3603 105.738 94.0776C104.758 94.7721 103.769 95.5669 102.771 96.4619C101.796 97.3563 100.965 98.2466 100.279 99.1329L120.229 97.0721L120.489 106.268Z" fill="#EDEDED"/>
<path d="M74.0986 107.571L71.0997 107.655L71.1845 110.654L74.1833 110.57L74.0986 107.571ZM73.3641 81.5815L76.363 81.4973L76.2683 78.1489L72.9505 78.6101L73.3641 81.5815ZM67.352 82.4173L64.3532 82.5015L64.4478 85.8499L67.7656 85.3887L67.352 82.4173ZM67.1515 75.3201L66.6435 72.3634L64.0791 72.8035L64.1526 75.4043L67.1515 75.3201ZM70.2666 74.6324L71.1117 77.511L71.1117 77.511L70.2666 74.6324ZM72.903 73.5246L74.3199 76.1692L74.3199 76.1692L72.903 73.5246ZM76.7945 68.4467L76.7097 65.4479L74.5859 65.5076L73.9375 67.5308L76.7945 68.4467ZM84.1582 68.2399L87.1571 68.1557L87.0723 65.1569L84.0735 65.2411L84.1582 68.2399ZM85.2608 107.258L85.3456 110.256L88.3444 110.172L88.2596 107.173L85.2608 107.258ZM77.0974 107.487L76.363 81.4973L70.3653 81.6657L71.0997 107.655L77.0974 107.487ZM72.9505 78.6101L66.9384 79.4459L67.7656 85.3887L73.7777 84.5529L72.9505 78.6101ZM70.3508 82.3331L70.1503 75.2359L64.1526 75.4043L64.3532 82.5015L70.3508 82.3331ZM67.6594 78.2769C68.9673 78.0524 70.1267 77.8001 71.1117 77.511L69.4215 71.7538C68.7308 71.9564 67.8134 72.1626 66.6435 72.3634L67.6594 78.2769ZM71.1117 77.511C72.1816 77.1971 73.2522 76.7411 74.3199 76.1692L71.4861 70.8801C70.7143 71.2935 70.0273 71.576 69.4215 71.7538L71.1117 77.511ZM74.3199 76.1692C75.6221 75.4717 76.7311 74.5229 77.6302 73.3479L72.8648 69.7014C72.4775 70.2076 72.0236 70.5922 71.4861 70.8801L74.3199 76.1692ZM77.6302 73.3479C78.5196 72.1855 79.1789 70.8372 79.6514 69.3626L73.9375 67.5308C73.6337 68.479 73.2617 69.1827 72.8648 69.7014L77.6302 73.3479ZM76.8792 71.4455L84.243 71.2387L84.0735 65.2411L76.7097 65.4479L76.8792 71.4455ZM81.1594 68.3241L82.262 107.342L88.2596 107.173L87.1571 68.1557L81.1594 68.3241ZM85.1761 104.259L74.0138 104.572L74.1833 110.57L85.3456 110.256L85.1761 104.259ZM120.489 106.268L120.573 109.267L123.572 109.183L123.487 106.184L120.489 106.268ZM92.0665 107.067L89.4221 108.483L90.2978 110.117L92.1512 110.065L92.0665 107.067ZM91.8553 106.672L89.0596 107.76L89.1254 107.929L89.2109 108.089L91.8553 106.672ZM97.7812 92.1669L99.6917 94.4803L99.7209 94.4561L99.7496 94.4312L97.7812 92.1669ZM106.586 75.6799L103.934 77.0829L103.938 77.0897L103.941 77.0964L106.586 75.6799ZM98.9941 73.7256L98.0224 70.8872L96.3968 71.4435L96.0543 73.1271L98.9941 73.7256ZM97.5887 80.6345L97.657 83.6337L100.051 83.5796L100.529 81.233L97.5887 80.6345ZM91.5235 80.7714L88.5362 81.0465L88.7933 83.8339L91.5918 83.7707L91.5235 80.7714ZM90.8024 72.9553L88.2536 71.3726L87.7226 72.2278L87.8151 73.2303L90.8024 72.9553ZM108.883 67.2788L109.292 64.307L109.292 64.307L108.883 67.2788ZM112.747 68.3374L111.584 71.1023L111.593 71.1062L111.602 71.1101L112.747 68.3374ZM115.972 70.3477L118.004 68.1411L118.004 68.1411L115.972 70.3477ZM118.13 73.555L115.36 74.707L115.364 74.7149L115.367 74.7227L118.13 73.555ZM118.526 81.6471L115.67 80.7285L115.664 80.745L115.659 80.7615L118.526 81.6471ZM117.043 84.6566L114.615 82.8949L114.608 82.9042L117.043 84.6566ZM114.783 87.2544L116.883 89.3966L116.883 89.3966L114.783 87.2544ZM111.981 89.6006L110.247 87.1522L110.234 87.1612L110.222 87.1704L111.981 89.6006ZM108.876 91.822L107.142 89.3736L107.131 89.3815L107.12 89.3896L108.876 91.822ZM105.738 94.0776L107.472 96.5261L107.478 96.5217L107.485 96.5174L105.738 94.0776ZM102.771 96.4619L100.767 94.229L100.755 94.2399L100.743 94.2509L102.771 96.4619ZM100.279 99.1329L97.9069 97.2958L93.6156 102.837L100.588 102.117L100.279 99.1329ZM120.229 97.0721L123.228 96.9878L123.136 93.7557L119.92 94.088L120.229 97.0721ZM120.404 103.27L91.9817 104.068L92.1512 110.065L120.573 109.267L120.404 103.27ZM94.7108 105.65L94.4996 105.256L89.2109 108.089L89.4221 108.483L94.7108 105.65ZM94.6509 105.584C94.701 105.713 94.7279 105.813 94.739 105.856C94.7516 105.905 94.7578 105.937 94.7592 105.945C94.7616 105.957 94.7569 105.934 94.7479 105.86C94.7301 105.712 94.7084 105.473 94.6856 105.123C94.6402 104.429 94.598 103.425 94.5604 102.095L88.5627 102.263C88.6011 103.62 88.6458 104.709 88.6983 105.513C88.7244 105.912 88.7544 106.273 88.791 106.577C88.8133 106.762 88.8724 107.279 89.0596 107.76L94.6509 105.584ZM94.5604 102.095C94.5108 100.341 95.6653 97.8051 99.6917 94.4803L95.8708 89.8535C91.4247 93.5249 88.4327 97.6631 88.5627 102.263L94.5604 102.095ZM99.7496 94.4312C103.313 91.3338 106.007 88.6362 107.682 86.3711L102.858 82.803C101.578 84.5336 99.2796 86.8892 95.8129 89.9026L99.7496 94.4312ZM107.682 86.3711C109.432 84.0046 110.483 81.4182 110.405 78.6739L104.407 78.8423C104.437 79.8743 104.063 81.1739 102.858 82.803L107.682 86.3711ZM110.405 78.6739C110.361 77.118 109.965 75.636 109.23 74.2635L103.941 77.0964C104.239 77.6512 104.39 78.2213 104.407 78.8423L110.405 78.6739ZM109.237 74.277C108.598 73.0696 107.722 71.9874 106.532 71.2251C105.319 70.448 103.958 70.1182 102.561 70.1574L102.731 76.155C103.045 76.1462 103.196 76.213 103.296 76.2771C103.419 76.356 103.657 76.5598 103.934 77.0829L109.237 74.277ZM102.561 70.1574C100.921 70.2035 99.3844 70.4211 98.0224 70.8872L99.9659 76.564C100.585 76.352 101.483 76.19 102.731 76.155L102.561 70.1574ZM96.0543 73.1271L94.6489 80.0359L100.529 81.233L101.934 74.3241L96.0543 73.1271ZM97.5205 77.6352L91.4552 77.7722L91.5918 83.7707L97.657 83.6337L97.5205 77.6352ZM94.5108 80.4964L93.7898 72.6802L87.8151 73.2303L88.5362 81.0465L94.5108 80.4964ZM93.3513 74.5379C94.8889 72.0612 98.2056 70.2464 104.626 70.0661L104.457 64.0685C97.1941 64.2724 91.3513 66.383 88.2536 71.3726L93.3513 74.5379ZM104.626 70.0661C106.04 70.0264 107.32 70.0916 108.473 70.2507L109.292 64.307C107.767 64.0966 106.153 64.0208 104.457 64.0685L104.626 70.0661ZM108.473 70.2507C109.555 70.3998 110.589 70.6836 111.584 71.1023L113.911 65.5726C112.431 64.9492 110.889 64.5272 109.292 64.307L108.473 70.2507ZM111.602 71.1101C112.576 71.5124 113.341 72.0022 113.94 72.5543L118.004 68.1411C116.823 67.0536 115.438 66.2032 113.892 65.5648L111.602 71.1101ZM113.94 72.5543C114.459 73.0318 114.949 73.7179 115.36 74.707L120.9 72.403C120.214 70.7552 119.266 69.3031 118.004 68.1411L113.94 72.5543ZM115.367 74.7227C115.742 75.6102 115.986 76.7333 116.026 78.1492L122.024 77.9808C121.967 75.9759 121.614 74.0923 120.894 72.3874L115.367 74.7227ZM116.026 78.1492C116.052 79.0654 115.93 79.9196 115.67 80.7285L121.382 82.5658C121.857 81.0865 122.068 79.5525 122.024 77.9808L116.026 78.1492ZM115.659 80.7615C115.403 81.5918 115.05 82.2948 114.615 82.8949L119.472 86.4182C120.321 85.2483 120.956 83.945 121.392 82.5327L115.659 80.7615ZM114.608 82.9042C114.103 83.6061 113.466 84.3431 112.682 85.1122L116.883 89.3966C117.873 88.4264 118.743 87.4314 119.479 86.4089L114.608 82.9042ZM112.682 85.1122C111.905 85.874 111.093 86.5529 110.247 87.1522L113.715 92.0491C114.83 91.2594 115.886 90.3742 116.883 89.3966L112.682 85.1122ZM110.222 87.1704C109.273 87.8573 108.246 88.5916 107.142 89.3736L110.61 94.2705C111.729 93.4782 112.772 92.7317 113.74 92.0309L110.222 87.1704ZM107.12 89.3896C106.033 90.1738 104.991 90.9232 103.992 91.6379L107.485 96.5174C108.491 95.7974 109.54 95.0431 110.632 94.2544L107.12 89.3896ZM104.004 91.6292C102.92 92.3973 101.841 93.2656 100.767 94.229L104.775 98.6948C105.696 97.8681 106.596 97.1469 107.472 96.5261L104.004 91.6292ZM100.743 94.2509C99.6646 95.2401 98.7137 96.254 97.9069 97.2958L102.651 100.97C103.217 100.239 103.928 99.4725 104.799 98.6729L100.743 94.2509ZM100.588 102.117L120.538 100.056L119.92 94.088L99.9702 96.1488L100.588 102.117ZM117.23 97.1563L117.49 106.353L123.487 106.184L123.228 96.9878L117.23 97.1563Z" fill="#BC002B" mask="url(#path-43-outside-1_36_30407)"/>
</g>
<defs>
<linearGradient id="paint0_linear_36_30407" x1="93.4036" y1="88.8321" x2="93.4036" y2="219.094" gradientUnits="userSpaceOnUse">
<stop stop-color="white"/>
<stop offset="1" stop-color="#6F4B28"/>
</linearGradient>
<clipPath id="clip0_36_30407">
<rect width="187" height="182" fill="white"/>
</clipPath>
</defs>
</svg>
