<svg width="187" height="182" viewBox="0 0 187 182" fill="none" xmlns="http://www.w3.org/2000/svg">
<g clip-path="url(#clip0_36_30480)">
<path d="M184.578 31.2165C181.865 12.8142 167.913 0 150.666 0H35.5595C17.3439 0 3.77918 12.6215 1.64757 31.3129C-2.80942 70.9116 2.61648 128.72 6.39524 150.88C9.78643 170.631 21.5103 181.904 38.3693 181.904H147.856C164.134 181.904 176.73 169.668 179.83 150.783C181.09 143.461 191.554 77.8486 184.578 31.0238V31.2165Z" fill="#6F4B28"/>
<path d="M175.179 150.109C172.66 165.043 162.971 177.279 147.856 177.279H38.4659C23.3508 177.279 14.0493 166.97 11.1426 150.109C6.87934 126.022 2.22856 69.37 6.39489 31.8909C8.33271 14.6447 20.541 4.72095 35.5591 4.72095H150.666C165.781 4.72095 177.505 16.1863 179.83 31.8909C185.837 71.875 178.861 127.564 175.082 150.205L175.179 150.109Z" fill="#F2C26D"/>
<path d="M11.0458 80.3536C17.1499 79.6791 23.351 79.1974 29.4551 78.812C40.9852 78.1376 52.5152 77.5595 64.1421 77.3668C86.8147 76.8851 109.584 76.8851 132.063 79.7755C148.728 81.8951 165.2 84.8819 181.768 87.3869C182.64 68.5028 182.446 48.848 179.927 31.8909C177.602 16.1863 165.781 4.72095 150.763 4.72095H35.5592C20.5411 4.72095 8.33282 14.6447 6.39499 31.8909C4.74784 46.4393 4.45717 63.9745 5.03851 81.2207C7.17012 80.8353 9.30173 80.5463 11.1427 80.3536H11.0458Z" fill="#F2C26D"/>
<path style="mix-blend-mode:multiply" d="M127.897 82.0878C103.771 79.39 79.3544 79.5827 55.2285 80.4499C43.6984 80.8353 32.0715 81.2206 20.6383 82.2805C15.5031 82.7622 10.271 83.3403 5.13574 83.822C6.00776 110.221 8.72072 135.85 11.2399 150.205C14.1466 166.97 23.4482 177.375 38.5632 177.375H148.05C163.165 177.375 172.854 165.139 175.374 150.205C177.505 137.68 180.509 114.846 181.865 90.2773C163.94 87.4832 146.112 84.2074 128.091 82.1841L127.897 82.0878Z" fill="url(#paint0_linear_36_30480)"/>
<g style="mix-blend-mode:screen" opacity="0.7">
<g opacity="0.5">
<path d="M156.868 24.1831C161.421 20.5219 165.297 15.8973 170.045 12.4288C169.463 11.947 168.882 11.3689 168.301 10.8872C164.134 16.09 159.484 20.9073 154.93 25.821C155.608 25.243 156.189 24.7612 156.868 24.1831Z" fill="#F2C26D"/>
</g>
<g opacity="0.5">
<path d="M72.5714 24.8578C73.5403 24.8578 74.5093 24.7614 75.3813 24.6651C75.3813 21.6783 75.5751 18.5952 75.8657 15.6084C76.1564 12.718 76.3502 9.73125 76.8346 6.84083C76.8346 6.35909 77.1253 5.49197 77.3191 4.72119H71.6025C71.4087 8.38239 72.1839 12.1399 72.087 15.8011C72.087 18.5952 71.6994 22.0637 72.5714 24.9541V24.8578Z" fill="#F2C26D"/>
</g>
<g opacity="0.5">
<path d="M86.1362 24.087C88.946 23.9906 91.659 23.9906 94.4688 24.087C97.3756 24.2797 100.282 24.4724 103.286 24.7614C103.77 18.0171 104.739 11.2728 105.999 4.72119H84.5859C84.6828 11.1765 86.0393 17.5354 86.1362 24.087Z" fill="#F2C26D"/>
</g>
<g opacity="0.5">
<path d="M52.4182 24.4724C52.4182 24.4724 53.0964 24.2797 53.484 24.2797C57.1658 23.798 60.8477 24.2797 64.6265 24.5687C64.6265 19.655 63.7544 14.5486 63.8513 9.6349C63.8513 7.997 63.8513 6.3591 64.0451 4.72119H46.5078C46.9923 6.3591 47.3798 7.90065 47.8643 9.53856C49.2208 14.5486 50.6741 19.5587 52.4182 24.4724Z" fill="#F2C26D"/>
</g>
<g opacity="0.5">
<path d="M44.8606 27.6518C43.7948 25.7248 42.4384 23.8942 41.3726 21.9673C39.9192 19.2696 38.5627 16.5718 37.1094 13.8741C35.4622 10.8874 33.9119 7.70789 31.8772 4.91382C30.9083 5.01017 30.0363 5.20286 29.0674 5.39555C32.943 13.6814 39.5316 20.3294 43.4073 28.5189C43.8917 28.2299 44.3762 27.9408 44.8606 27.6518Z" fill="#F2C26D"/>
</g>
<g opacity="0.5">
<path d="M67.3393 24.7613C68.1145 24.7613 68.8896 24.7613 69.6647 24.8577C68.9865 21.9673 69.2772 18.7878 69.2772 15.8974C69.2772 12.1398 68.5989 8.3823 68.7927 4.62476H66.8549C66.6611 7.90056 66.6611 11.08 66.758 14.2595C66.758 17.728 67.4362 21.1965 67.4362 24.665L67.3393 24.7613Z" fill="#F2C26D"/>
</g>
<g opacity="0.5">
<path d="M115.592 25.2432C116.658 25.2432 117.917 25.2432 119.08 25.2432C121.115 18.6915 121.018 10.6947 124.409 4.72119H117.917C116.754 8.28604 116.561 12.5253 115.979 16.1865C115.495 19.1733 115.107 22.2564 114.72 25.2432H115.592Z" fill="#F2C26D"/>
</g>
<g opacity="0.5">
<path d="M165.006 37.9609C161.228 39.9842 157.449 41.9111 153.573 43.7417C153.864 44.5125 154.155 45.2833 154.348 46.1504C157.546 45.2833 160.743 44.5125 163.844 43.4527C167.526 42.2002 171.304 40.755 175.18 39.7915C177.021 39.3098 178.959 39.0207 180.8 38.4426C180.509 36.2267 180.218 34.0107 179.928 31.891C179.928 31.5056 179.831 31.1203 179.734 30.7349C178.087 31.4093 176.536 32.2764 174.889 33.1435C171.595 34.6851 168.301 36.323 165.006 38.0573V37.9609Z" fill="#F2C26D"/>
</g>
<g opacity="0.5">
<path d="M39.6285 30.9277C39.6285 30.9277 40.4036 30.4459 40.7912 30.1569C40.7912 30.1569 40.8881 30.1569 40.985 30.0605C37.2062 21.4856 30.2301 14.645 26.3544 6.07007C24.4166 6.64815 22.6725 7.41893 21.0254 8.3824C25.4824 13.9705 29.9394 19.7514 34.7839 25.1468C36.528 26.9774 38.1751 28.9044 39.6285 30.9277Z" fill="#F2C26D"/>
</g>
<g opacity="0.5">
<path d="M157.643 60.4099C157.643 60.4099 157.643 60.8916 157.739 61.1807C157.739 61.3734 157.739 61.4697 157.739 61.6624C157.739 61.6624 157.836 61.6624 157.933 61.6624C164.813 62.0478 171.789 62.3368 178.765 62.4332C179.928 62.4332 181.09 62.4332 182.156 62.4332C182.156 60.988 182.156 59.4464 182.156 58.0012C177.408 58.1939 172.661 58.0012 167.913 58.6757C164.522 59.1574 161.034 59.6391 157.643 60.3136V60.4099Z" fill="#F2C26D"/>
</g>
<g opacity="0.5">
<path d="M145.628 31.0238C145.628 31.0238 145.919 31.3129 146.112 31.4092C152.604 23.8941 159.774 16.9571 165.975 9.24933C164.328 8.18951 162.584 7.32238 160.743 6.64795C157.061 11.5617 153.573 16.6681 150.666 22.1599C149.019 25.1466 147.469 28.2297 145.628 31.0238Z" fill="#F2C26D"/>
</g>
<g opacity="0.5">
<path d="M122.083 25.1468H124.021C125.571 18.3062 126.928 10.6947 130.222 4.72119H127.8C125.571 7.61161 124.699 12.5253 124.021 16.0902C123.439 19.1733 122.955 22.16 122.083 25.1468Z" fill="#F2C26D"/>
</g>
<g opacity="0.5">
<path d="M136.907 26.592C137.683 26.7847 138.555 27.0738 139.233 27.3628C141.268 23.5089 142.915 19.4623 145.046 15.6084C147.081 11.7545 149.891 8.38239 152.216 4.72119C151.732 4.72119 151.247 4.72119 150.666 4.72119H145.821C144.271 7.997 143.012 11.5618 141.558 14.8377C139.911 18.6915 138.361 22.6418 136.811 26.592H136.907Z" fill="#F2C26D"/>
</g>
<g opacity="0.5">
<path d="M159.774 126.504C159.774 126.504 159.774 126.697 159.774 126.793C162.294 127.275 165.007 129.009 166.847 129.78C170.336 131.321 173.921 132.767 177.506 134.212C177.699 132.574 177.893 130.936 178.184 129.202C172.176 127.275 166.169 125.444 159.968 123.999C159.968 124.866 159.871 125.637 159.774 126.504Z" fill="#F2C26D"/>
</g>
<g opacity="0.5">
<path d="M159.483 129.587C159.483 130.358 159.289 131.129 159.192 131.899C162.39 131.899 164.812 134.115 167.428 135.946C170.141 137.969 173.435 139.415 176.633 140.474C176.827 139.415 176.923 138.258 177.117 137.006C173.629 135.657 170.238 134.212 166.75 132.863C165.103 132.189 161.905 130.069 159.386 129.587H159.483Z" fill="#F2C26D"/>
</g>
<g opacity="0.5">
<path d="M34.1062 137.873C34.1062 137.873 34.3 137.777 34.3969 137.68C34.3 137.102 34.2031 136.428 34.1062 135.85C32.9435 136.332 31.7808 137.295 30.8119 137.873C28.3896 139.318 25.9674 140.667 23.5451 141.92C19.3788 144.136 15.1155 146.255 10.9492 148.568C10.9492 149.049 11.143 149.628 11.2399 150.109C11.3368 150.88 11.5306 151.554 11.6275 152.325C14.4373 150.109 17.1503 147.701 20.2508 145.774C24.8047 142.98 29.6492 140.667 34.3 137.873H34.1062Z" fill="#F2C26D"/>
</g>
<g opacity="0.5">
<path d="M161.033 104.73C164.522 104.344 168.203 106.271 171.401 107.138C174.308 107.909 177.214 108.68 180.218 109.547C180.315 108.487 180.412 107.331 180.509 106.175C174.017 104.73 167.622 103.573 160.937 103.477C160.937 103.862 160.937 104.248 160.937 104.633L161.033 104.73Z" fill="#F2C26D"/>
</g>
<g opacity="0.5">
<path d="M160.549 88.1579C160.549 88.1579 160.549 88.736 160.549 89.025C164.715 89.025 169.075 89.0251 173.242 89.5068C176.052 89.7958 178.861 90.1812 181.574 90.5666C181.574 89.5068 181.671 88.447 181.768 87.4835C174.695 87.1945 167.622 87.7725 160.452 88.2543L160.549 88.1579Z" fill="#F2C26D"/>
</g>
<g opacity="0.5">
<path d="M27.1297 62.3368C27.1297 61.6623 27.1297 61.0842 27.1297 60.4098C22.8665 59.9281 18.6033 59.35 14.2432 59.061C11.1427 58.8683 7.94524 58.4829 4.84473 58.6756C4.84473 59.9281 4.84473 61.2769 4.84473 62.6258C12.3053 62.0477 19.766 62.9148 27.2266 62.4331L27.1297 62.3368Z" fill="#F2C26D"/>
</g>
<g opacity="0.5">
<path d="M18.9911 67.7321C21.8009 67.6358 24.6107 67.3467 27.3237 66.9613C27.3237 66.5759 27.3237 66.1906 27.3237 65.9015C27.3237 65.6125 27.3237 65.4198 27.3237 65.1307C19.8631 65.6125 12.2087 64.649 4.74805 65.3234C4.74805 66.4796 4.74805 67.6358 4.74805 68.7919C9.39882 69.1773 14.3403 67.9248 18.8942 67.7321H18.9911Z" fill="#F2C26D"/>
</g>
<g opacity="0.5">
<path d="M26.9365 51.546C26.9365 51.546 26.9365 51.0642 26.9365 50.7752C27.0334 48.5592 27.2271 45.8615 27.9054 43.3565C24.3204 41.9113 20.8323 40.6587 17.1505 39.4062C13.4686 38.1537 9.59295 37.0939 5.91108 35.6487C5.52352 39.9843 5.23284 44.5126 5.03906 49.2336C11.5308 49.9081 18.0225 50.3898 24.5142 51.2569C24.9986 51.2569 25.8707 51.3533 26.8396 51.4496L26.9365 51.546Z" fill="#F2C26D"/>
</g>
<g opacity="0.5">
<path d="M27.8083 100.683C27.7114 99.9122 27.6145 99.1414 27.5177 98.3706C20.3477 99.8158 13.0809 101.261 6.00781 103.188C6.00781 104.248 6.1047 105.308 6.20159 106.367C9.68968 105.115 13.4684 104.344 16.7627 103.573C20.4446 102.61 24.0296 101.646 27.8083 100.779V100.683Z" fill="#F2C26D"/>
</g>
<g opacity="0.5">
<path d="M30.4242 118.122C30.4242 118.122 30.3273 117.544 30.3273 117.255C22.8667 121.012 15.6967 125.348 8.33301 129.202C8.52679 131.225 8.81746 133.248 9.01125 135.175C16.0843 130.069 23.448 125.348 30.9087 120.723C30.7149 119.856 30.618 118.989 30.4242 118.122Z" fill="#F2C26D"/>
</g>
</g>
<g style="mix-blend-mode:multiply" opacity="0.7">
<path d="M32.2654 157.817C35.269 153.867 37.9819 149.82 40.6949 145.677C34.3001 150.88 27.7115 155.793 21.2198 160.996C19.5726 162.345 17.9255 163.598 16.2783 164.946C18.0224 167.837 20.154 170.342 22.6731 172.269C23.4483 170.631 24.2234 169.089 25.1923 167.548C27.4208 164.176 29.8431 160.996 32.3623 157.817H32.2654Z" fill="#6B6D72"/>
</g>
<g style="mix-blend-mode:multiply" opacity="0.7">
<path d="M160.937 169.668C158.418 167.837 155.705 166.392 153.38 164.465C152.023 163.309 150.763 161.96 149.504 160.707C150.86 162.827 152.314 164.85 153.67 166.97C155.317 169.379 156.965 171.691 158.515 174.1C158.709 174.389 158.805 174.581 158.999 174.87C160.84 174.003 162.487 172.847 163.941 171.595C162.875 171.016 161.809 170.438 160.937 169.764V169.668Z" fill="#6B6D72"/>
</g>
<g style="mix-blend-mode:screen" opacity="0.4">
<path d="M21.8974 29.675C24.2228 33.3362 24.3197 37.2864 24.029 41.5257C23.3508 53.0874 24.2228 64.7454 24.5134 76.3071C24.5134 78.8121 24.7072 81.3171 24.8041 83.7258H154.057C154.832 75.3436 155.801 66.8651 157.061 58.5792C157.836 52.8947 157.642 47.0175 159.677 41.5257C160.355 39.6951 161.324 38.0572 161.614 36.1303C162.002 33.5289 161.614 30.9275 163.262 28.6152C165.103 26.1102 168.203 23.1234 171.497 23.2197C175.857 23.4124 178.764 27.9408 180.218 32.9508C180.218 32.5654 180.121 32.18 180.024 31.7947C178.28 19.7512 170.916 10.2129 160.742 6.45532C164.909 7.99688 167.816 13.3923 166.943 17.5353C165.878 22.738 160.936 23.7015 156.285 23.7015C146.693 23.7015 137.295 26.6882 127.799 27.459C117.723 28.3262 107.549 27.9408 97.4725 27.17C87.5896 26.4956 77.7067 25.3394 67.8238 24.3759C58.1347 23.5088 48.3487 24.0869 38.6596 23.8942C32.3616 23.7015 27.3233 21.4855 23.9321 15.9937C22.7694 14.0668 21.4129 10.2129 22.9632 8.09323C23.2539 7.70784 23.5445 7.4188 23.8352 7.03341C15.5026 10.5019 9.30153 17.9206 7.16992 28.3262C7.94505 26.8809 8.91396 25.5321 10.1735 24.3759C14.7274 20.0403 19.6689 25.9175 22.0912 29.675H21.8974Z" fill="#E9E9EC"/>
</g>
<path d="M35.8498 33.9142C32.7493 28.6151 28.1954 24.2795 23.9322 19.8475C21.7037 17.5352 19.2814 15.2229 17.4405 12.7178C17.1498 12.3325 16.8591 11.9471 16.5685 11.4653C15.1151 12.7178 13.7586 14.1631 12.499 15.7046C15.212 17.4389 17.9249 19.3658 20.4441 21.1964C25.87 25.0503 31.4897 28.8078 35.7529 33.9142H35.8498Z" fill="#E9E9EC"/>
<path d="M152.41 31.6019C155.898 29.964 159.58 27.8444 162.681 25.5321C165.781 23.3161 168.397 20.4257 171.595 18.306C172.37 17.8243 173.145 17.3425 174.017 16.7645C173.339 15.8973 172.66 14.9339 171.982 14.1631C169.366 16.7645 166.556 19.2695 163.843 21.8709C160.452 25.243 155.898 27.9407 152.507 31.4092L152.41 31.6019Z" fill="#E9E9EC"/>
<g style="mix-blend-mode:multiply" opacity="0.4">
<path d="M171.595 155.89C167.816 158.202 163.069 155.697 161.131 152.325C159.484 149.724 160.453 146.255 160.356 143.365C160.356 140.667 160.356 137.777 160.162 134.886C159.387 138.451 158.902 142.016 158.127 145.581C157.837 146.93 155.802 147.219 155.414 145.773C152.895 137.391 152.701 128.72 152.508 120.049C152.314 111.377 152.604 102.706 153.186 94.1313C153.283 91.6263 153.476 89.1212 153.767 86.6162H24.9018C25.3863 96.3473 26.0645 105.982 27.0334 115.713C27.8085 122.939 27.7117 130.165 27.8085 137.391C27.9054 144.039 28.293 153.289 21.0262 156.661C17.0536 158.491 14.05 156.564 11.7246 153.096C15.2127 168.126 24.2236 177.279 38.4666 177.279H147.954C161.906 177.279 171.208 166.873 174.599 153.481C173.727 154.445 172.855 155.215 171.789 155.89H171.595Z" fill="#515358"/>
</g>
<path opacity="0.5" d="M29.165 166.777C31.1998 162.538 32.5562 158.395 33.8158 154.059C32.5562 155.601 31.1998 157.046 29.7464 158.491C26.2583 162.056 23.1578 165.91 19.7666 169.571C21.7044 171.595 23.836 173.232 26.2583 174.485C27.1303 171.787 28.0024 169.186 29.165 166.681V166.777Z" fill="#E9E9EC"/>
<path opacity="0.5" d="M155.995 159.551C153.767 157.817 151.538 156.468 149.019 155.312C148.535 155.119 147.953 154.83 147.372 154.445C147.857 155.119 148.438 155.697 148.922 156.372C150.666 158.491 152.507 160.225 154.348 162.249C157.061 165.428 158.805 169.089 161.324 172.365C161.518 172.558 161.615 172.751 161.809 173.04C163.844 171.594 165.685 169.956 167.332 168.03C163.553 165.235 159.677 162.441 155.995 159.551Z" fill="#E9E9EC"/>
<path d="M160.452 139.511C158.417 151.747 150.375 161.767 138.07 161.767H48.3491C35.947 161.767 28.3895 153.289 25.9672 139.511C22.576 119.663 18.6035 73.3203 22.0916 42.5856C23.6418 28.5189 33.7185 20.3293 46.0237 20.3293H140.396C152.798 20.3293 162.39 29.7714 164.328 42.5856C169.269 75.3436 163.553 121.012 160.452 139.511Z" fill="#F2C26D"/>
<g style="mix-blend-mode:multiply" opacity="0.15">
<path d="M164.328 42.4891C162.487 29.8676 153.088 20.522 141.074 20.2329C143.593 22.2562 154.348 28.2297 155.607 31.3128C159.677 41.4293 156.964 73.513 150.569 81.6061C137.973 97.4071 109.487 92.3007 89.8183 91.6263C71.409 91.0482 30.1333 100.008 33.2339 63.0111C33.6214 57.5193 29.7458 43.1636 28.1955 37.8645C26.9359 33.6252 32.3618 28.1334 34.5903 23.9905C34.881 23.4124 35.2686 22.8343 35.6561 22.3526C28.4862 25.7247 23.2541 32.5654 22.1883 42.3928C18.7971 73.1276 22.6727 119.567 26.0639 139.318C28.4862 153.096 36.1406 161.574 48.4458 161.574H138.167C150.569 161.574 158.514 151.554 160.549 139.318C163.649 120.819 169.366 75.1509 164.425 42.3928L164.328 42.4891Z" fill="#6B6D72"/>
</g>
<g style="mix-blend-mode:multiply" opacity="0.15">
<path d="M164.328 42.4891C163.359 35.8412 160.259 30.0603 155.802 26.1101C157.739 29.5786 159.387 33.1435 160.259 36.9973C162.293 45.8613 161.324 54.6289 158.999 63.3002C152.992 85.9418 170.238 106.753 148.825 118.411C131.385 127.853 57.7477 130.454 40.4042 118.411C20.7353 104.729 31.2965 85.0746 26.5488 62.2403C24.9016 54.3399 23.2545 46.343 23.0607 38.2499C23.0607 37.9608 23.0607 37.5754 23.0607 37.19C22.5762 38.8279 22.1887 40.5622 21.9949 42.4891C18.6037 73.2239 22.4794 119.663 25.8705 139.415C28.2928 153.192 35.9472 161.671 48.2524 161.671H137.974C150.376 161.671 158.321 151.651 160.356 139.415C163.456 120.916 169.173 75.2472 164.231 42.4891H164.328Z" fill="#6B6D72"/>
</g>
<path d="M22.0918 42.4891C22.5763 36.2265 24.4172 30.3493 28.9711 25.7247C34.3001 20.2329 41.1794 18.7877 48.5431 18.4986C65.4991 18.1132 82.455 17.8242 99.411 17.9205C113.266 17.9205 127.316 17.8242 141.171 18.595C154.348 19.5584 162.972 29.8676 164.522 42.4891C161.518 31.1201 153.089 21.8708 140.59 21.8708C127.509 21.8708 113.751 22.4489 100.477 22.5452C84.1991 22.6415 67.8244 22.5452 51.5467 22.0635C44.0861 21.8708 36.9162 21.9671 30.9089 26.9772C26.0643 30.9274 23.6421 36.5156 22.2856 42.5854L22.0918 42.4891Z" fill="#E9E9EC"/>
<path opacity="0.5" d="M164.328 42.4891C169.076 72.0677 167.332 102.417 163.456 131.996C161.809 144.328 158.805 158.009 145.434 162.73C139.718 164.754 133.226 163.983 127.219 163.983C118.595 163.983 109.972 163.983 101.446 163.983C84.7803 163.983 68.0181 163.983 51.3528 163.983C46.3145 163.983 41.373 163.598 36.8191 161.093C30.1336 157.335 26.258 150.109 24.6108 142.787C22.8668 135.079 22.1886 126.986 21.6072 119.085C20.929 110.896 20.3476 102.706 20.1538 94.5166C19.6694 79.4864 19.6694 64.3599 21.3165 49.3297C21.6072 47.0174 21.801 44.7051 22.0917 42.3927C20.7352 72.164 21.9948 102.417 26.7424 131.803C27.9051 139.222 28.8741 146.93 33.8155 152.903C37.4974 157.335 42.9233 159.358 48.6399 159.358C63.4642 159.262 78.2886 159.358 93.2098 159.262C101.833 159.262 110.456 159.262 119.08 159.262C126.443 159.262 134.292 160.129 141.559 159.069C153.379 157.335 157.546 145.195 159.29 135.175C164.328 104.922 167.428 73.5129 164.522 42.8745C164.522 42.6818 164.522 42.4891 164.522 42.2964L164.328 42.4891Z" fill="#E9E9EC"/>
<path d="M58.8135 33.0472C54.6472 19.3659 35.6565 33.9143 33.1374 41.3331C32.2654 43.8381 30.7151 48.9445 32.4591 51.3532C36.3348 56.7486 47.3804 48.9445 50.6747 46.5358C54.6472 43.7418 60.5576 38.6354 58.8135 33.0472Z" fill="#E9E9EC"/>
<path d="M73.1528 29.3859C70.2461 28.6151 64.7233 31.2165 64.9171 35.8412C65.2078 43.3563 72.1839 37.9608 74.0248 34.396C75.672 31.4092 74.8 29.7713 73.1528 29.3859Z" fill="#E9E9EC"/>
<mask id="path-43-outside-1_36_30480" maskUnits="userSpaceOnUse" x="75.3082" y="63.4816" width="38.313" height="48.0199" fill="black">
<rect fill="white" x="75.3082" y="63.4816" width="38.313" height="48.0199"/>
<path d="M94.1905 101.338C95.2593 101.397 96.1606 101.038 96.8945 100.262C97.6507 99.4846 98.0127 98.5296 97.9807 97.3967C97.9675 96.9302 97.8556 96.511 97.6451 96.139C97.4567 95.7663 97.1131 95.4092 96.6144 95.0675C96.1379 94.7252 95.6626 94.4273 95.1886 94.1738C94.7139 93.8982 94.0251 93.5173 93.1221 93.0314C92.2192 92.5454 91.4282 92.0897 90.7492 91.6641C89.5119 92.7215 88.9051 94.0613 88.9287 95.6835C88.9599 97.5722 89.3992 98.9605 90.2469 99.8481C91.0939 100.714 92.4084 101.21 94.1905 101.338ZM95.2076 81.8684C95.6144 82.1016 96.0773 82.3553 96.5964 82.6298C96.8757 82.2885 97.1329 81.9478 97.3678 81.6077C97.6027 81.2676 97.8044 80.9285 97.9726 80.5903C98.1625 80.2293 98.3194 79.8803 98.4433 79.5434C98.5893 79.2058 98.691 78.8695 98.7482 78.5344C98.8277 78.1987 98.8633 77.8865 98.8551 77.5977C98.8231 76.4648 98.2843 75.4907 97.2386 74.6753C96.2151 73.8592 95.1703 73.4662 94.104 73.4961C93.0378 73.5261 92.1257 73.8963 91.3677 74.6067C90.6319 75.3165 90.2673 76.1827 90.274 77.2051C90.2859 77.6272 90.3638 78.0251 90.5078 78.399C90.6733 78.7501 90.8598 79.0561 91.0673 79.317C91.2741 79.5557 91.5704 79.8142 91.9562 80.0924C92.3636 80.3477 92.7027 80.5494 92.9737 80.6974C93.2446 80.8454 93.6282 81.0458 94.1245 81.2986C94.6207 81.5515 94.9817 81.7414 95.2076 81.8684ZM94.3704 107.702C91.6603 107.778 89.183 107.437 86.9385 106.677C84.7161 105.917 82.9156 104.745 81.537 103.161C80.1577 101.554 79.4376 99.6737 79.3767 97.519C79.346 96.4306 79.5596 95.3352 80.0175 94.2331C80.4755 93.1309 81.2241 92.0872 82.2633 91.1021C83.3241 90.0942 84.5712 89.3811 86.0044 88.9629C85.1211 88.3875 84.3492 87.82 83.6887 87.2606C83.0504 86.7005 82.4312 86.0287 81.831 85.2453C81.2303 84.4396 80.7704 83.5077 80.4515 82.4496C80.132 81.3692 79.9648 80.1734 79.95 78.8622C79.9181 75.3729 81.1191 72.6381 83.553 70.6579C85.9869 68.6776 89.4586 67.6242 93.9679 67.4976C96.0115 67.4402 97.885 67.6544 99.5883 68.1401C101.291 68.6036 102.688 69.2535 103.778 70.0899C104.869 70.9263 105.719 71.8806 106.327 72.9528C106.935 74.0028 107.244 75.1057 107.254 76.2614C107.254 77.0395 107.153 77.7982 106.952 78.5375C106.772 79.2761 106.449 80.0188 105.981 80.7656C105.535 81.5117 104.9 82.2521 104.076 82.9866C103.251 83.6989 102.259 84.3715 101.099 85.0043C102.34 85.6808 103.392 86.3293 104.255 86.9498C105.139 87.5697 105.994 88.3015 106.818 89.1454C107.664 89.9664 108.301 90.8933 108.73 91.9261C109.182 92.9583 109.425 94.0853 109.46 95.307C109.534 97.9504 108.92 100.202 107.616 102.061C106.313 103.921 104.529 105.305 102.265 106.213C100.023 107.121 97.3914 107.617 94.3704 107.702Z"/>
</mask>
<path d="M94.1905 101.338C95.2593 101.397 96.1606 101.038 96.8945 100.262C97.6507 99.4846 98.0127 98.5296 97.9807 97.3967C97.9675 96.9302 97.8556 96.511 97.6451 96.139C97.4567 95.7663 97.1131 95.4092 96.6144 95.0675C96.1379 94.7252 95.6626 94.4273 95.1886 94.1738C94.7139 93.8982 94.0251 93.5173 93.1221 93.0314C92.2192 92.5454 91.4282 92.0897 90.7492 91.6641C89.5119 92.7215 88.9051 94.0613 88.9287 95.6835C88.9599 97.5722 89.3992 98.9605 90.2469 99.8481C91.0939 100.714 92.4084 101.21 94.1905 101.338ZM95.2076 81.8684C95.6144 82.1016 96.0773 82.3553 96.5964 82.6298C96.8757 82.2885 97.1329 81.9478 97.3678 81.6077C97.6027 81.2676 97.8044 80.9285 97.9726 80.5903C98.1625 80.2293 98.3194 79.8803 98.4433 79.5434C98.5893 79.2058 98.691 78.8695 98.7482 78.5344C98.8277 78.1987 98.8633 77.8865 98.8551 77.5977C98.8231 76.4648 98.2843 75.4907 97.2386 74.6753C96.2151 73.8592 95.1703 73.4662 94.104 73.4961C93.0378 73.5261 92.1257 73.8963 91.3677 74.6067C90.6319 75.3165 90.2673 76.1827 90.274 77.2051C90.2859 77.6272 90.3638 78.0251 90.5078 78.399C90.6733 78.7501 90.8598 79.0561 91.0673 79.317C91.2741 79.5557 91.5704 79.8142 91.9562 80.0924C92.3636 80.3477 92.7027 80.5494 92.9737 80.6974C93.2446 80.8454 93.6282 81.0458 94.1245 81.2986C94.6207 81.5515 94.9817 81.7414 95.2076 81.8684ZM94.3704 107.702C91.6603 107.778 89.183 107.437 86.9385 106.677C84.7161 105.917 82.9156 104.745 81.537 103.161C80.1577 101.554 79.4376 99.6737 79.3767 97.519C79.346 96.4306 79.5596 95.3352 80.0175 94.2331C80.4755 93.1309 81.2241 92.0872 82.2633 91.1021C83.3241 90.0942 84.5712 89.3811 86.0044 88.9629C85.1211 88.3875 84.3492 87.82 83.6887 87.2606C83.0504 86.7005 82.4312 86.0287 81.831 85.2453C81.2303 84.4396 80.7704 83.5077 80.4515 82.4496C80.132 81.3692 79.9648 80.1734 79.95 78.8622C79.9181 75.3729 81.1191 72.6381 83.553 70.6579C85.9869 68.6776 89.4586 67.6242 93.9679 67.4976C96.0115 67.4402 97.885 67.6544 99.5883 68.1401C101.291 68.6036 102.688 69.2535 103.778 70.0899C104.869 70.9263 105.719 71.8806 106.327 72.9528C106.935 74.0028 107.244 75.1057 107.254 76.2614C107.254 77.0395 107.153 77.7982 106.952 78.5375C106.772 79.2761 106.449 80.0188 105.981 80.7656C105.535 81.5117 104.9 82.2521 104.076 82.9866C103.251 83.6989 102.259 84.3715 101.099 85.0043C102.34 85.6808 103.392 86.3293 104.255 86.9498C105.139 87.5697 105.994 88.3015 106.818 89.1454C107.664 89.9664 108.301 90.8933 108.73 91.9261C109.182 92.9583 109.425 94.0853 109.46 95.307C109.534 97.9504 108.92 100.202 107.616 102.061C106.313 103.921 104.529 105.305 102.265 106.213C100.023 107.121 97.3914 107.617 94.3704 107.702Z" fill="#EDEDED"/>
<path d="M94.1905 101.338L93.9765 104.33L94.0012 104.332L94.0259 104.333L94.1905 101.338ZM96.8945 100.262L94.7442 98.1694L94.7291 98.185L94.7141 98.2007L96.8945 100.262ZM97.6451 96.139L94.9678 97.4921L94.9996 97.5551L95.0344 97.6165L97.6451 96.139ZM96.6144 95.0675L94.8644 97.5039L94.8915 97.5234L94.9191 97.5423L96.6144 95.0675ZM95.1886 94.1738L93.6822 96.7679L93.7278 96.7944L93.7743 96.8193L95.1886 94.1738ZM93.1221 93.0314L91.7008 95.673L93.1221 93.0314ZM90.7492 91.6641L92.3422 89.1223L90.475 87.9519L88.8 89.3834L90.7492 91.6641ZM88.9287 95.6835L85.929 95.7266L85.9291 95.7324L88.9287 95.6835ZM90.2469 99.8481L88.0773 101.92L88.0901 101.933L88.103 101.946L90.2469 99.8481ZM95.2076 81.8684L96.6991 79.2657L96.6885 79.2596L96.6779 79.2537L95.2076 81.8684ZM96.5964 82.6298L95.1946 85.2818L97.364 86.4288L98.918 84.5301L96.5964 82.6298ZM97.9726 80.5903L95.3174 79.1935L95.3017 79.2233L95.2868 79.2534L97.9726 80.5903ZM98.4433 79.5434L95.6899 78.3515L95.6565 78.4288L95.6275 78.5078L98.4433 79.5434ZM98.7482 78.5344L95.8288 77.8431L95.807 77.9354L95.791 78.0289L98.7482 78.5344ZM97.2386 74.6753L95.3686 77.0208L95.3813 77.0309L95.394 77.0409L97.2386 74.6753ZM91.3677 74.6067L89.3159 72.4177L89.3001 72.4325L89.2846 72.4475L91.3677 74.6067ZM90.274 77.2051L87.274 77.2241L87.2742 77.2567L87.2751 77.2893L90.274 77.2051ZM90.5078 78.399L87.7081 79.4765L87.7475 79.5789L87.7943 79.6781L90.5078 78.399ZM91.0673 79.317L88.719 81.1837L88.7585 81.2332L88.8 81.2811L91.0673 79.317ZM91.9562 80.0924L90.2019 82.5256L90.2808 82.5825L90.3632 82.6342L91.9562 80.0924ZM92.9737 80.6974L91.5359 83.3301L91.5359 83.3301L92.9737 80.6974ZM94.1245 81.2986L95.4861 78.6257L95.4861 78.6257L94.1245 81.2986ZM86.9385 106.677L85.968 109.516L85.9773 109.519L86.9385 106.677ZM81.537 103.161L79.261 105.115L79.2675 105.122L79.2741 105.13L81.537 103.161ZM80.0175 94.2331L82.788 95.3845L82.788 95.3845L80.0175 94.2331ZM82.2633 91.1021L84.3274 93.2795L84.3299 93.2771L82.2633 91.1021ZM86.0044 88.9629L86.8451 91.8428L93.1132 90.014L87.6417 86.4494L86.0044 88.9629ZM83.6887 87.2606L81.7102 89.5154L81.7299 89.5327L81.7499 89.5496L83.6887 87.2606ZM81.831 85.2453L79.4261 87.0383L79.4378 87.0539L79.4496 87.0693L81.831 85.2453ZM80.4515 82.4496L77.5747 83.3L77.5769 83.3074L77.5791 83.3148L80.4515 82.4496ZM79.95 78.8622L76.9501 78.8891L76.9502 78.8956L79.95 78.8622ZM83.553 70.6579L81.6594 68.3306L81.6594 68.3306L83.553 70.6579ZM99.5883 68.1401L98.766 71.025L98.7834 71.03L98.8007 71.0347L99.5883 68.1401ZM103.778 70.0899L105.604 67.7094L105.604 67.7094L103.778 70.0899ZM106.327 72.9528L103.718 74.4328L103.724 74.444L103.73 74.4551L106.327 72.9528ZM107.254 76.2614L110.254 76.2629L110.254 76.2489L110.254 76.2349L107.254 76.2614ZM106.952 78.5375L104.057 77.7484L104.046 77.7889L104.036 77.8297L106.952 78.5375ZM105.981 80.7656L103.439 79.1722L103.422 79.1993L103.405 79.2267L105.981 80.7656ZM104.076 82.9866L106.037 85.257L106.055 85.2417L106.073 85.2262L104.076 82.9866ZM101.099 85.0043L99.6618 82.3705L94.8302 85.0055L99.6637 87.6387L101.099 85.0043ZM104.255 86.9498L102.503 89.3848L102.518 89.3957L102.533 89.4065L104.255 86.9498ZM106.818 89.1454L104.672 91.2413L104.7 91.2699L104.728 91.2977L106.818 89.1454ZM108.73 91.9261L105.96 93.0773L105.971 93.1028L105.982 93.1281L108.73 91.9261ZM107.616 102.061L110.073 103.784L110.073 103.784L107.616 102.061ZM102.265 106.213L101.147 103.429L101.138 103.433L102.265 106.213ZM94.0259 104.333C95.9741 104.441 97.7337 103.742 99.0749 102.323L94.7141 98.2007C94.6162 98.3043 94.5639 98.3235 94.5582 98.3258C94.5524 98.3281 94.4999 98.3505 94.3551 98.3426L94.0259 104.333ZM99.0449 102.354C100.394 100.967 101.033 99.2148 100.98 97.3125L94.9819 97.4809C94.9922 97.8444 94.9071 98.002 94.7442 98.1694L99.0449 102.354ZM100.98 97.3125C100.954 96.4028 100.729 95.4975 100.256 94.6615L95.0344 97.6165C95.0123 97.5775 94.9971 97.5382 94.9884 97.5055C94.9799 97.4739 94.9814 97.463 94.9819 97.4809L100.98 97.3125ZM100.322 94.7859C99.8269 93.8057 99.0506 93.1003 98.3097 92.5927L94.9191 97.5423C94.9757 97.581 95.0163 97.6124 95.044 97.6353C95.0716 97.6582 95.0836 97.6706 95.0842 97.6712C95.0865 97.6736 95.0307 97.6165 94.9678 97.4921L100.322 94.7859ZM98.3644 92.6311C97.7903 92.2187 97.2032 91.8494 96.6028 91.5284L93.7743 96.8193C94.1219 97.0052 94.4854 97.2317 94.8644 97.5039L98.3644 92.6311ZM96.695 91.5797C96.1778 91.2794 95.4551 90.8803 94.5435 90.3897L91.7008 95.673C92.5951 96.1543 93.25 96.517 93.6822 96.7679L96.695 91.5797ZM94.5435 90.3897C93.6836 89.927 92.9521 89.5046 92.3422 89.1223L89.1563 94.206C89.9043 94.6748 90.7547 95.1639 91.7008 95.673L94.5435 90.3897ZM88.8 89.3834C86.8868 91.0183 85.8924 93.2086 85.929 95.7266L91.9284 95.6404C91.9178 94.9139 92.137 94.4247 92.6985 93.9449L88.8 89.3834ZM85.9291 95.7324C85.9662 97.9825 86.4889 100.256 88.0773 101.92L92.4164 97.7765C92.3096 97.6647 91.9535 97.162 91.9283 95.6346L85.9291 95.7324ZM88.103 101.946C89.659 103.536 91.8031 104.174 93.9765 104.33L94.4046 98.3457C93.0138 98.246 92.5288 97.891 92.3908 97.75L88.103 101.946ZM93.7162 84.4712C94.1588 84.7248 94.6525 84.9953 95.1946 85.2818L97.9982 79.9777C97.5021 79.7154 97.07 79.4783 96.6991 79.2657L93.7162 84.4712ZM98.918 84.5301C99.2455 84.13 99.5521 83.7244 99.8362 83.3132L94.8994 79.9022C94.7137 80.1711 94.5059 80.4469 94.2747 80.7294L98.918 84.5301ZM99.8362 83.3132C100.145 82.8664 100.421 82.4046 100.659 81.9272L95.2868 79.2534C95.1877 79.4525 95.0607 79.6688 94.8994 79.9022L99.8362 83.3132ZM100.628 81.9871C100.871 81.5248 101.084 81.055 101.259 80.5789L95.6275 78.5078C95.5548 78.7056 95.454 78.9338 95.3174 79.1935L100.628 81.9871ZM101.197 80.7352C101.43 80.1957 101.605 79.6296 101.705 79.0399L95.791 78.0289C95.7773 78.1094 95.7486 78.2159 95.6899 78.3515L101.197 80.7352ZM101.668 79.2257C101.796 78.6836 101.871 78.1078 101.854 77.5135L95.8563 77.6819C95.8558 77.6651 95.8594 77.7138 95.8288 77.8431L101.668 79.2257ZM101.854 77.5135C101.792 75.3296 100.701 73.5713 99.0832 72.3097L95.394 77.0409C95.8675 77.4101 95.854 77.6 95.8563 77.6819L101.854 77.5135ZM99.1086 72.3298C97.6616 71.176 95.9444 70.4433 94.0193 70.4973L94.1888 76.4949C94.3962 76.4891 94.7687 76.5425 95.3686 77.0208L99.1086 72.3298ZM94.0193 70.4973C92.2419 70.5472 90.6241 71.1916 89.3159 72.4177L93.4194 76.7957C93.6273 76.6009 93.8337 76.5049 94.1888 76.4949L94.0193 70.4973ZM89.2846 72.4475C87.9579 73.7273 87.262 75.3807 87.274 77.2241L93.2739 77.1861C93.273 77.0451 93.2962 76.9797 93.3075 76.9529C93.3187 76.9262 93.3493 76.8638 93.4507 76.766L89.2846 72.4475ZM87.2751 77.2893C87.2961 78.0329 87.4355 78.7684 87.7081 79.4765L93.3074 77.3215C93.2922 77.2819 93.2756 77.2215 93.2728 77.1209L87.2751 77.2893ZM87.7943 79.6781C88.0429 80.2051 88.3464 80.7149 88.719 81.1837L93.4155 77.4503C93.3732 77.3972 93.3038 77.295 93.2212 77.1199L87.7943 79.6781ZM88.8 81.2811C89.2148 81.76 89.7121 82.1725 90.2019 82.5256L93.7105 77.6591C93.5778 77.5634 93.4821 77.4866 93.4164 77.4292C93.3492 77.3707 93.3275 77.3448 93.3346 77.3529L88.8 81.2811ZM90.3632 82.6342C90.7968 82.906 91.1919 83.1422 91.5359 83.3301L94.4115 78.0646C94.2136 77.9565 93.9303 77.7894 93.5491 77.5505L90.3632 82.6342ZM91.5359 83.3301C91.8444 83.4986 92.2578 83.7143 92.7629 83.9716L95.4861 78.6257C94.9986 78.3773 94.6448 78.1921 94.4115 78.0646L91.5359 83.3301ZM92.7629 83.9716C93.2541 84.2219 93.5687 84.3883 93.7374 84.4832L96.6779 79.2537C96.3948 79.0945 95.9873 78.8811 95.4861 78.6257L92.7629 83.9716ZM94.2856 104.703C91.8802 104.771 89.7628 104.466 87.8996 103.835L85.9773 109.519C88.6033 110.407 91.4405 110.786 94.4551 110.701L94.2856 104.703ZM87.9089 103.839C86.1258 103.229 84.792 102.331 83.7999 101.191L79.2741 105.13C81.0392 107.158 83.3064 108.605 85.968 109.516L87.9089 103.839ZM83.8129 101.207C82.8907 100.132 82.4174 98.9154 82.3756 97.4348L76.3779 97.6032C76.4579 100.432 77.4247 102.976 79.261 105.115L83.8129 101.207ZM82.3756 97.4348C82.3579 96.809 82.4768 96.1335 82.788 95.3845L77.2471 93.0816C76.6424 94.5369 76.3341 96.0521 76.3779 97.6032L82.3756 97.4348ZM82.788 95.3845C83.056 94.7395 83.533 94.0325 84.3274 93.2795L80.1992 88.9247C78.9151 90.1419 77.8949 91.5223 77.2471 93.0816L82.788 95.3845ZM84.3299 93.2771C85.037 92.6053 85.8613 92.1299 86.8451 91.8428L85.1636 86.083C83.2811 86.6323 81.6113 87.583 80.1967 88.9271L84.3299 93.2771ZM87.6417 86.4494C86.8417 85.9283 86.1743 85.4348 85.6274 84.9716L81.7499 89.5496C82.5241 90.2053 83.4005 90.8467 84.3671 91.4765L87.6417 86.4494ZM85.6671 85.0058C85.1986 84.5946 84.7116 84.0728 84.2125 83.4212L79.4496 87.0693C80.1508 87.9847 80.9022 88.8064 81.7102 89.5154L85.6671 85.0058ZM84.2359 83.4522C83.8635 82.9528 83.5521 82.3416 83.3239 81.5843L77.5791 83.3148C77.9887 84.6738 78.597 85.9264 79.4261 87.0383L84.2359 83.4522ZM83.3283 81.5992C83.0989 80.8234 82.962 79.9075 82.9498 78.8289L76.9502 78.8956C76.9676 80.4394 77.1651 81.915 77.5747 83.3L83.3283 81.5992ZM82.9499 78.8353C82.9252 76.1419 83.8057 74.3201 85.4466 72.9851L81.6594 68.3306C78.4325 70.9561 76.9109 74.6039 76.9501 78.8891L82.9499 78.8353ZM85.4466 72.9851C87.1865 71.5695 89.9237 70.6123 94.0526 70.4964L93.8831 64.4988C88.9934 64.6361 84.7874 65.7858 81.6594 68.3306L85.4466 72.9851ZM94.0526 70.4964C95.8362 70.4463 97.3989 70.6352 98.766 71.025L100.411 65.2551C98.371 64.6735 96.1869 64.4341 93.8831 64.4988L94.0526 70.4964ZM98.8007 71.0347C100.23 71.4236 101.246 71.928 101.953 72.4704L105.604 67.7094C104.129 66.579 102.352 65.7835 100.376 65.2454L98.8007 71.0347ZM101.953 72.4704C102.762 73.0903 103.329 73.7483 103.718 74.4328L108.936 71.4728C108.108 70.0128 106.977 68.7622 105.604 67.7094L101.953 72.4704ZM103.73 74.4551C104.092 75.0795 104.249 75.6768 104.254 76.2879L110.254 76.2349C110.239 74.5346 109.777 72.9262 108.923 71.4505L103.73 74.4551ZM104.254 76.26C104.254 76.7761 104.187 77.2698 104.057 77.7484L109.846 79.3265C110.119 78.3266 110.254 77.3029 110.254 76.2629L104.254 76.26ZM104.036 77.8297C103.944 78.2095 103.762 78.656 103.439 79.1722L108.523 82.359C109.135 81.3817 109.601 80.3427 109.867 79.2453L104.036 77.8297ZM103.405 79.2267C103.151 79.6516 102.735 80.1633 102.08 80.747L106.073 85.2262C107.066 84.3409 107.919 83.3718 108.556 82.3045L103.405 79.2267ZM102.115 80.7162C101.481 81.2633 100.673 81.819 99.6618 82.3705L102.535 87.6381C103.845 86.924 105.022 86.1345 106.037 85.257L102.115 80.7162ZM99.6637 87.6387C100.829 88.2737 101.769 88.8566 102.503 89.3848L106.007 84.5148C105.016 83.802 103.851 83.088 102.533 82.37L99.6637 87.6387ZM102.533 89.4065C103.252 89.9103 103.966 90.5186 104.672 91.2413L108.964 87.0495C108.021 86.0845 107.026 85.2291 105.976 84.4931L102.533 89.4065ZM104.728 91.2977C105.298 91.8503 105.696 92.4411 105.96 93.0773L111.501 90.775C110.906 89.3456 110.03 88.0825 108.907 86.993L104.728 91.2977ZM105.982 93.1281C106.266 93.7783 106.436 94.5218 106.461 95.3912L112.458 95.2228C112.414 93.6488 112.098 92.1384 111.479 90.7241L105.982 93.1281ZM106.461 95.3912C106.52 97.4997 106.034 99.0912 105.16 100.339L110.073 103.784C111.805 101.313 112.548 98.4011 112.458 95.2228L106.461 95.3912ZM105.16 100.339C104.215 101.687 102.913 102.72 101.147 103.429L103.382 108.998C106.144 107.889 108.41 106.155 110.073 103.784L105.16 100.339ZM101.138 103.433C99.2991 104.177 97.0349 104.626 94.2856 104.703L94.4551 110.701C97.7479 110.608 100.747 110.065 103.391 108.994L101.138 103.433Z" fill="#BC002B" mask="url(#path-43-outside-1_36_30480)"/>
</g>
<defs>
<linearGradient id="paint0_linear_36_30480" x1="93.4036" y1="88.8321" x2="93.4036" y2="219.094" gradientUnits="userSpaceOnUse">
<stop stop-color="white"/>
<stop offset="1" stop-color="#6F4B28"/>
</linearGradient>
<clipPath id="clip0_36_30480">
<rect width="187" height="182" fill="white"/>
</clipPath>
</defs>
</svg>
