<svg width="119" height="126" viewBox="0 0 119 126" fill="none" xmlns="http://www.w3.org/2000/svg">
<g clip-path="url(#clip0_36_34548)">
<g style="mix-blend-mode:multiply" opacity="0.3">
<path d="M57.4662 2.58991C87.8226 1.16207 113.677 24.6933 115.105 55.0598C116.533 85.4262 93.0016 111.27 62.6452 112.698C32.2888 114.126 6.43414 90.5848 5.0063 60.2283C3.57846 29.8719 27.1092 4.00776 57.4657 2.57991L57.4662 2.58991Z" fill="#050400"/>
<path d="M57.6087 5.60659C28.8664 6.95851 6.66217 31.3547 8.01409 60.0969C9.36601 88.8392 33.7621 111.043 62.5044 109.692C91.2467 108.34 113.451 83.9435 112.099 55.2012C110.747 26.4589 86.3509 4.25467 57.6087 5.60659Z" fill="#050400"/>
<g style="mix-blend-mode:overlay" opacity="0.5">
<path d="M57.6087 5.60659C28.8664 6.95851 6.66217 31.3547 8.01409 60.0969C9.36601 88.8392 33.7621 111.043 62.5044 109.692C91.2467 108.34 113.451 83.9435 112.099 55.2012C110.747 26.4589 86.3509 4.25467 57.6087 5.60659Z" fill="#050400"/>
</g>
<path d="M10.5946 41.2716C3.81684 61.7572 20.4677 85.691 47.7854 94.7292C75.1031 103.767 102.743 94.4874 109.521 74.0017C116.299 53.5161 99.6476 29.5823 72.3299 20.5441C45.0122 11.5059 17.3724 20.7859 10.5946 41.2716Z" fill="#050400"/>
<g style="mix-blend-mode:soft-light">
<path d="M10.5946 41.2716C3.81684 61.7572 20.4677 85.691 47.7854 94.7292C75.1031 103.767 102.743 94.4874 109.521 74.0017C116.299 53.5161 99.6476 29.5823 72.3299 20.5441C45.0122 11.5059 17.3724 20.7859 10.5946 41.2716Z" fill="#050400"/>
</g>
</g>
<path d="M55.5023 12.3526C85.8587 10.9248 111.713 34.456 113.141 64.8224C114.569 95.1889 91.0378 121.033 60.6813 122.461C30.3249 123.889 4.47028 100.347 3.04243 69.991C1.61459 39.6346 25.1454 13.7705 55.5018 12.3426L55.5023 12.3526Z" fill="#871C45"/>
<path d="M55.6438 15.3595C26.9016 16.7114 4.69732 41.1076 6.04924 69.8499C7.40116 98.5921 31.7973 120.796 60.5396 119.444C89.2818 118.093 111.486 93.6964 110.134 64.9541C108.782 36.2119 84.3861 14.0076 55.6438 15.3595Z" fill="#FE5D5D"/>
<path style="mix-blend-mode:overlay" opacity="0.5" d="M55.6438 15.3595C26.9016 16.7114 4.69732 41.1076 6.04924 69.8499C7.40116 98.5921 31.7973 120.796 60.5396 119.444C89.2818 118.093 111.486 93.6964 110.134 64.9541C108.782 36.2119 84.3861 14.0076 55.6438 15.3595Z" fill="url(#paint0_linear_36_34548)"/>
<path d="M8.62293 51.0426C1.84516 71.5282 18.4961 95.462 45.8138 104.5C73.1315 113.538 100.771 104.258 107.549 83.7727C114.327 63.2871 97.6759 39.3533 70.3582 30.3151C43.0405 21.2769 15.4007 30.5569 8.62293 51.0426Z" fill="#FE5D5D"/>
<path style="mix-blend-mode:soft-light" d="M8.62293 51.0426C1.84516 71.5282 18.4961 95.462 45.8138 104.5C73.1315 113.538 100.771 104.258 107.549 83.7727C114.327 63.2871 97.6759 39.3533 70.3582 30.3151C43.0405 21.2769 15.4007 30.5569 8.62293 51.0426Z" fill="url(#paint1_linear_36_34548)"/>
<path d="M40.4045 103.833C40.667 104.732 39.6253 105.572 38.0848 105.384C34.1776 104.897 30.4183 102.871 27.8648 99.8779C26.8585 98.7039 26.9858 97.3664 27.884 97.0939C28.7817 96.8114 40.142 102.934 40.405 103.843L40.4045 103.833Z" fill="white"/>
<path d="M25.4777 94.2437C25.3807 94.9491 24.6267 95.9456 23.8765 96.1711C21.9721 96.7612 20.5442 95.9874 19.9836 94.0717C19.768 93.321 20.183 92.1402 20.7113 91.6648C21.2495 91.189 25.5737 93.5184 25.4772 94.2337L25.4777 94.2437Z" fill="white"/>
<path opacity="0.6" d="M58.2958 37.2587C58.5855 37.2451 58.8861 37.251 59.1881 37.2868C61.2713 37.5192 63.1237 38.8036 64.0207 40.6335C64.5632 41.7392 64.6534 42.8062 64.6653 43.6966L64.7893 51.2291C64.9092 51.2234 65.0795 51.2254 65.2893 51.2156L65.9285 51.1855C66.0484 51.1799 66.1583 51.1747 66.2682 51.1695C66.8585 51.1618 67.4483 51.144 68.0486 51.1358C69.3685 51.1038 70.7279 51.0599 72.0935 51.1458C74.4427 51.2856 76.4714 52.7018 77.3734 54.8518C77.9377 56.2068 77.9036 57.61 77.862 58.8533C77.8552 59.1339 77.8479 59.4046 77.8506 59.6747L77.8599 73.92C77.8582 74.3105 77.877 74.7101 77.8858 75.1101C77.9161 76.1799 77.9578 77.2791 77.8002 78.3978C77.4831 80.5951 75.958 82.4388 73.821 83.19C73.2891 83.3752 72.7235 83.4819 72.0342 83.5143C71.7346 83.5284 71.4344 83.5325 71.1338 83.5266L70.7833 83.5231C69.8524 83.5269 68.9315 83.5301 68.0007 83.5339C67.1098 83.5357 66.2289 83.5371 65.3375 83.529L64.987 83.5255L65.0464 89.259C65.0568 89.4787 65.0571 89.699 65.0574 89.9192C65.105 91.5688 65.1614 93.6184 63.653 95.3912C62.6101 96.6316 61.0538 97.3856 59.3857 97.464C58.9961 97.4823 58.6047 97.4607 58.2218 97.4086C56.6998 97.1899 55.4874 96.3159 54.5237 95.6204L54.0577 95.2919C51.9262 93.8205 49.7268 92.182 46.9403 89.9805C41.8156 85.9568 37.2683 82.0762 33.0178 78.1215L32.6831 77.8169C30.694 75.9683 28.6422 74.0626 27.0506 71.7248C25.739 69.8043 25.0528 67.7743 25.0725 65.8513C25.0917 63.9182 25.8006 61.9628 27.1187 60.1889C28.5687 58.2386 30.4175 56.68 32.0283 55.3829C33.8319 53.9266 35.6578 52.5192 37.1939 51.3357C42.2856 47.4222 46.8329 44.0648 51.077 41.0721C52.1429 40.3212 53.2097 39.5903 54.2865 38.8589C55.4219 38.0947 56.6776 37.3348 58.2958 37.2587Z" fill="black"/>
<path d="M26.876 65.8768C26.8579 67.6196 27.5675 69.2981 28.5351 70.7142C30.0944 73.0035 32.2171 74.9259 34.238 76.813C38.6563 80.93 43.2954 84.8463 48.046 88.5772C50.3433 90.3813 52.6691 92.154 55.0802 93.8225C56.1252 94.5442 57.1992 95.4548 58.4791 95.6348C59.8802 95.8392 61.3384 95.3402 62.258 94.2458C63.4713 92.7972 63.2383 91.0362 63.2164 89.2953C63.198 87.4141 63.1796 85.5328 63.1617 83.6616C63.1554 83.1013 63.1086 82.5329 63.5488 82.1017C64.0176 81.6392 64.7234 81.7461 65.3246 81.7579C66.206 81.7665 67.0869 81.7651 67.9778 81.7632C68.8987 81.76 69.8195 81.7567 70.7404 81.7534C71.5509 81.7453 72.4042 81.7953 73.1921 81.518C74.6593 80.9985 75.7607 79.7253 75.978 78.1734C76.1738 76.8027 76.0248 75.3381 76.0199 73.9568C76.0147 72.3552 76.0189 70.7433 76.0137 69.1417C76.016 65.9982 76.0083 62.8551 76.0106 59.7115C76.0076 58.3701 76.2063 56.8491 75.6762 55.5826C75.0341 54.0611 73.6062 53.0771 71.9601 52.9843C70.0727 52.8729 68.1468 53.0035 66.2556 53.0224C65.1649 53.0337 63.0523 53.4534 62.9652 51.8157C62.9439 50.0848 62.9125 48.3543 62.8812 46.6239C62.8665 45.6735 62.8514 44.7132 62.8367 43.7628C62.8186 42.9528 62.733 42.196 62.3781 41.4618C61.7358 40.1506 60.4135 39.2817 58.9743 39.1192C57.5351 38.9566 56.435 39.619 55.2901 40.3937C54.2228 41.1146 53.1659 41.8451 52.1196 42.5851C47.4291 45.8791 42.8352 49.3087 38.294 52.7959C36.5743 54.1182 34.855 55.4504 33.1575 56.8217C31.4891 58.1716 29.8435 59.5804 28.553 61.303C27.5548 62.6414 26.8779 64.2149 26.857 65.8977L26.876 65.8768Z" fill="white"/>
</g>
<defs>
<linearGradient id="paint0_linear_36_34548" x1="76.1759" y1="18.5383" x2="40.008" y2="116.276" gradientUnits="userSpaceOnUse">
<stop offset="0.4" stop-color="#1A1A1A"/>
<stop offset="0.58" stop-color="white"/>
</linearGradient>
<linearGradient id="paint1_linear_36_34548" x1="63.4676" y1="107.874" x2="67.7231" y2="27.7465" gradientUnits="userSpaceOnUse">
<stop/>
<stop offset="1" stop-color="white"/>
</linearGradient>
<clipPath id="clip0_36_34548">
<rect width="112.64" height="119.89" fill="white" transform="translate(118.148 119.758) rotate(177.307)"/>
</clipPath>
</defs>
</svg>
