<svg width="113" height="120" viewBox="0 0 113 120" fill="none" xmlns="http://www.w3.org/2000/svg">
<g clip-path="url(#clip0_36_34547)">
<g style="mix-blend-mode:multiply" opacity="0.3">
<path d="M55.11 119.89C24.72 119.89 0 95.1697 0 64.7697C0 34.3697 24.72 9.65967 55.11 9.65967C85.5 9.65967 110.22 34.3897 110.22 64.7797C110.22 95.1697 85.5 119.9 55.11 119.9V119.89Z" fill="#050400"/>
<path d="M55.1098 116.87C83.8838 116.87 107.21 93.544 107.21 64.7699C107.21 35.9959 83.8838 12.6699 55.1098 12.6699C26.3357 12.6699 3.00977 35.9959 3.00977 64.7699C3.00977 93.544 26.3357 116.87 55.1098 116.87Z" fill="#050400"/>
<g style="mix-blend-mode:overlay" opacity="0.5">
<path d="M55.1098 116.87C83.8838 116.87 107.21 93.544 107.21 64.7699C107.21 35.9959 83.8838 12.6699 55.1098 12.6699C26.3357 12.6699 3.00977 35.9959 3.00977 64.7699C3.00977 93.544 26.3357 116.87 55.1098 116.87Z" fill="#050400"/>
</g>
<path d="M103.747 83.4529C111.48 63.3083 95.9721 38.6186 69.1092 28.3069C42.2463 17.9952 14.201 25.9664 6.46823 46.111C-1.26455 66.2555 14.2435 90.9452 41.1063 101.257C67.9692 111.569 96.0145 103.597 103.747 83.4529Z" fill="#050400"/>
<g style="mix-blend-mode:soft-light">
<path d="M103.747 83.4529C111.48 63.3083 95.9721 38.6186 69.1092 28.3069C42.2463 17.9952 14.201 25.9664 6.46823 46.111C-1.26455 66.2555 14.2435 90.9452 41.1063 101.257C67.9692 111.569 96.0145 103.597 103.747 83.4529Z" fill="#050400"/>
</g>
</g>
<path d="M57.5299 110.23C27.1399 110.23 2.41992 85.51 2.41992 55.11C2.41992 24.71 27.1399 0 57.5299 0C87.9199 0 112.64 24.73 112.64 55.12C112.64 85.51 87.9199 110.24 57.5299 110.24V110.23Z" fill="#871C45"/>
<path d="M57.5297 107.22C86.3037 107.22 109.63 83.8941 109.63 55.12C109.63 26.346 86.3037 3.02002 57.5297 3.02002C28.7556 3.02002 5.42969 26.346 5.42969 55.12C5.42969 83.8941 28.7556 107.22 57.5297 107.22Z" fill="#FE5D5D"/>
<path style="mix-blend-mode:overlay" opacity="0.5" d="M57.5297 107.22C86.3037 107.22 109.63 83.8941 109.63 55.12C109.63 26.346 86.3037 3.02002 57.5297 3.02002C28.7556 3.02002 5.42969 26.346 5.42969 55.12C5.42969 83.8941 28.7556 107.22 57.5297 107.22Z" fill="url(#paint0_linear_36_34547)"/>
<path d="M106.175 73.7854C113.908 53.6408 98.3998 28.9511 71.5369 18.6395C44.6741 8.32776 16.6287 16.2989 8.89597 36.4435C1.16319 56.588 16.6712 81.2777 43.5341 91.5894C70.3969 101.901 98.4423 93.93 106.175 73.7854Z" fill="#FE5D5D"/>
<path style="mix-blend-mode:soft-light" d="M106.175 73.7854C113.908 53.6408 98.3998 28.9511 71.5369 18.6395C44.6741 8.32776 16.6287 16.2989 8.89597 36.4435C1.16319 56.588 16.6712 81.2777 43.5341 91.5894C70.3969 101.901 98.4423 93.93 106.175 73.7854Z" fill="url(#paint1_linear_36_34547)"/>
<path d="M76.9103 19.56C76.6903 18.65 77.7703 17.86 79.3003 18.12C83.1803 18.79 86.8403 20.99 89.2503 24.1C90.2003 25.32 90.0103 26.65 89.1003 26.88C88.1903 27.12 77.1303 20.47 76.9103 19.55V19.56Z" fill="white"/>
<path d="M91.3701 29.8397C91.5001 29.1397 92.3001 28.1797 93.0601 27.9897C94.9901 27.4897 96.3801 28.3297 96.8501 30.2697C97.0301 31.0297 96.5601 32.1897 96.0101 32.6397C95.4501 33.0897 91.2401 30.5597 91.3701 29.8497V29.8397Z" fill="white"/>
<path opacity="0.6" d="M55.9105 85.2198C55.6205 85.2198 55.3205 85.1998 55.0205 85.1498C52.9505 84.8198 51.1605 83.4498 50.3505 81.5798C49.8605 80.4498 49.8205 79.3798 49.8505 78.4898L50.0805 70.9598C49.9605 70.9598 49.7905 70.9498 49.5805 70.9498H48.9405C48.8205 70.9498 48.7105 70.9498 48.6005 70.9498C48.0105 70.9298 47.4205 70.9198 46.8205 70.8998C45.5005 70.8698 44.1405 70.8498 42.7805 70.6998C40.4405 70.4498 38.4805 68.9398 37.6805 66.7498C37.1805 65.3698 37.2805 63.9698 37.3805 62.7298C37.4005 62.4498 37.4205 62.1798 37.4305 61.9098L38.0905 47.6798C38.1105 47.2898 38.1105 46.8898 38.1205 46.4898C38.1405 45.4198 38.1505 44.3198 38.3605 43.2098C38.7805 41.0298 40.3905 39.2598 42.5605 38.6098C43.1005 38.4498 43.6705 38.3698 44.3605 38.3698C44.6605 38.3698 44.9605 38.3798 45.2605 38.3998L45.6105 38.4198C46.5405 38.4598 47.4605 38.4998 48.3905 38.5398C49.2805 38.5798 50.1605 38.6198 51.0505 38.6698L51.4005 38.6898L51.6105 32.9598C51.6105 32.7398 51.6205 32.5198 51.6305 32.2998C51.6605 30.6498 51.7005 28.5998 53.2905 26.8998C54.3905 25.7098 55.9805 25.0298 57.6505 25.0298C58.0405 25.0298 58.4305 25.0698 58.8105 25.1398C60.3205 25.4298 61.4905 26.3598 62.4205 27.0998L62.8705 27.4498C64.9305 29.0198 67.0505 30.7598 69.7305 33.0898C74.6605 37.3498 79.0205 41.4398 83.0805 45.5898L83.4005 45.9098C85.3005 47.8498 87.2605 49.8498 88.7405 52.2598C89.9605 54.2398 90.5505 56.2998 90.4405 58.2198C90.3305 60.1498 89.5305 62.0698 88.1305 63.7798C86.5905 65.6598 84.6705 67.1298 83.0005 68.3498C81.1305 69.7198 79.2405 71.0398 77.6505 72.1498C72.3805 75.8198 67.6805 78.9598 63.3005 81.7498C62.2005 82.4498 61.1005 83.1298 59.9905 83.8098C58.8205 84.5198 57.5305 85.2198 55.9105 85.2198Z" fill="black"/>
<path d="M88.6402 58.11C88.7402 56.37 88.1102 54.66 87.2102 53.2C85.7602 50.84 83.7302 48.82 81.8002 46.84C77.5802 42.52 73.1302 38.39 68.5602 34.44C66.3502 32.53 64.1102 30.65 61.7802 28.87C60.7702 28.1 59.7402 27.14 58.4702 26.9C57.0802 26.63 55.6002 27.06 54.6302 28.11C53.3502 29.5 53.5002 31.27 53.4402 33.01C53.3702 34.89 53.3002 36.77 53.2302 38.64C53.2102 39.2 53.2302 39.77 52.7702 40.18C52.2802 40.62 51.5802 40.48 50.9802 40.44C50.1002 40.39 49.2202 40.35 48.3302 40.31C47.4102 40.27 46.4902 40.23 45.5702 40.19C44.7602 40.16 43.9102 40.07 43.1102 40.31C41.6202 40.76 40.4602 41.98 40.1702 43.52C39.9102 44.88 39.9902 46.35 39.9302 47.73C39.8602 49.33 39.7802 50.94 39.7102 52.54C39.5602 55.68 39.4202 58.82 39.2702 61.96C39.2102 63.3 38.9402 64.81 39.4102 66.1C39.9802 67.65 41.3602 68.7 43.0002 68.87C44.8802 69.07 46.8102 69.03 48.7002 69.1C49.7902 69.14 51.9202 68.82 51.9302 70.46C51.8702 72.19 51.8202 73.92 51.7702 75.65C51.7402 76.6 51.7102 77.56 51.6802 78.51C51.6602 79.32 51.7102 80.08 52.0302 80.83C52.6102 82.17 53.8902 83.1 55.3202 83.33C56.7502 83.56 57.8802 82.95 59.0602 82.23C60.1602 81.56 61.2502 80.88 62.3302 80.19C67.1702 77.12 71.9202 73.91 76.6202 70.64C78.4002 69.4 80.1802 68.15 81.9402 66.86C83.6702 65.59 85.3802 64.26 86.7502 62.6C87.8102 61.31 88.5602 59.77 88.6602 58.09L88.6402 58.11Z" fill="white"/>
</g>
<defs>
<linearGradient id="paint0_linear_36_34547" x1="37.1697" y1="103.08" x2="77.8897" y2="7.15002" gradientUnits="userSpaceOnUse">
<stop offset="0.4" stop-color="#1A1A1A"/>
<stop offset="0.58" stop-color="white"/>
</linearGradient>
<linearGradient id="paint1_linear_36_34547" x1="54.0611" y1="14.4403" x2="46.0456" y2="94.279" gradientUnits="userSpaceOnUse">
<stop/>
<stop offset="1" stop-color="white"/>
</linearGradient>
<clipPath id="clip0_36_34547">
<rect width="112.64" height="119.89" fill="white"/>
</clipPath>
</defs>
</svg>
