<svg width="447" height="130" viewBox="0 0 447 130" fill="none" xmlns="http://www.w3.org/2000/svg">
<path d="M439.688 113.235C417.547 113.97 428.596 114.471 406.515 116.272L26.3229 126.16L17.151 119.194C51.0335 113.759 44.4056 80.0742 77.9388 73.3761C33.4225 71.0716 54.9646 73.6327 11.0471 67.3124L1.87514 60.3461C128.758 50.0989 199.341 20.8604 326.741 16.5697C394.07 14.3035 370.66 5.20733 433.125 2.96152C434.919 2.89972 440.364 9.99331 442.297 9.92786C442.833 23.46 443.354 26.2269 443.361 36.8029C443.36 40.0985 381.333 47.2575 381.333 47.2575C381.333 47.2575 418.537 43.017 433.795 45.1657C437.332 45.6647 442.99 51.5254 442.967 52.1321C442.567 68.5144 442.027 97.6359 439.688 113.243L439.688 113.235Z" fill="#3B3D40"/>
<path d="M430.507 106.262C408.365 106.997 419.414 107.497 397.334 109.299L17.1415 119.187C16.7491 117.545 14.8237 77.4041 14.4313 75.7627C48.3138 70.3282 35.2148 73.1008 68.7573 66.4025C24.241 64.0979 45.7832 66.659 1.86567 60.3387C0.406323 40.247 8.21844 40.0363 6.7591 19.9445C133.642 9.6973 190.16 13.8868 317.559 9.58853C386.822 7.25684 363.862 5.28567 433.116 2.94666C433.651 16.4788 434.172 19.2457 434.179 29.8217C434.179 33.1173 372.151 40.2763 372.151 40.2763C372.151 40.2763 433.862 41.8911 433.785 45.1509C433.386 61.5332 432.845 90.6547 430.507 106.262Z" fill="#F2C26D"/>
<path d="M145.451 94.6515C104.863 93.51 64.2773 104.483 24.0901 99.7625C61.9968 104.3 108.047 101.405 145.451 94.6515Z" fill="#3E4D45"/>
</svg>
